cl1 = 0.01;
Point(24) = {3.83209, 0.413878, 0.02274, 0.01};
Point(25) = {3.83107, 0.415071, 0.02274, 0.01};
Point(26) = {3.82988, 0.41609, 0.02274, 0.01};
Point(27) = {3.82854, 0.41691, 0.02274, 0.01};
Point(28) = {3.82709, 0.417511, 0.02274, 0.01};
Point(80) = {1.98454, 1.05091, 0.02274, 0.01};
Point(81) = {1.98309, 1.05151, 0.02274, 0.01};
Point(82) = {1.98156, 1.05188, 0.02274, 0.01};
Point(83) = {1.98, 1.052, 0.02274, 0.01};
Point(84) = {1.97844, 1.05188, 0.02274, 0.01};
Point(218) = {3.83209, 0.413878, 0.02411, 0.01};
Point(222) = {3.83107, 0.415071, 0.02411, 0.01};
Point(226) = {3.82988, 0.41609, 0.02411, 0.01};
Point(230) = {3.82854, 0.41691, 0.02411, 0.01};
Point(234) = {3.82709, 0.417511, 0.02411, 0.01};
Point(442) = {1.98454, 1.05091, 0.02411, 0.01};
Point(446) = {1.98309, 1.05151, 0.02411, 0.01};
Point(450) = {1.98156, 1.05188, 0.02411, 0.01};
Point(454) = {1.98, 1.052, 0.02411, 0.01};
Point(458) = {1.97844, 1.05188, 0.02411, 0.01};
Line(24) = {24, 25};
Line(25) = {25, 26};
Line(26) = {26, 27};
Line(27) = {27, 28};
Line(80) = {80, 81};
Line(81) = {81, 82};
Line(82) = {82, 83};
Line(83) = {83, 84};
Line(153) = {218, 222};
Line(154) = {222, 226};
Line(155) = {226, 230};
Line(156) = {230, 234};
Line(209) = {442, 446};
Line(210) = {446, 450};
Line(211) = {450, 454};
Line(212) = {454, 458};
Line(348) = {24, 218};
Line(352) = {25, 222};
Line(356) = {26, 226};
Line(360) = {27, 230};
Line(364) = {28, 234};
Line(572) = {80, 442};
Line(576) = {81, 446};
Line(580) = {82, 450};
Line(584) = {83, 454};
Line(588) = {84, 458};
Line Loop(353) = {24, 352, -153, -348};
Ruled Surface(353) = {353};
Line Loop(357) = {25, 356, -154, -352};
Ruled Surface(357) = {357};
Line Loop(361) = {26, 360, -155, -356};
Ruled Surface(361) = {361};
Line Loop(365) = {27, 364, -156, -360};
Ruled Surface(365) = {365};
Line Loop(577) = {80, 576, -209, -572};
Ruled Surface(577) = {577};
Line Loop(581) = {81, 580, -210, -576};
Ruled Surface(581) = {581};
Line Loop(585) = {82, 584, -211, -580};
Ruled Surface(585) = {585};
Line Loop(589) = {83, 588, -212, -584};
Ruled Surface(589) = {589};
Surface Loop(1) = {1, 770, 261, 265, 269, 273, 277, 281, 285, 289, 293, 297, 301, 305, 309, 313, 317, 321, 325, 329, 333, 337, 341, 345, 349, 353, 357, 361, 365, 369, 373, 377, 381, 385, 389, 393, 397, 401, 405, 409, 413, 417, 421, 425, 429, 433, 437, 441, 445, 449, 453, 457, 461, 465, 469, 473, 477, 481, 485, 489, 493, 497, 501, 505, 509, 513, 517, 521, 525, 529, 533, 537, 541, 545, 549, 553, 557, 561, 565, 569, 573, 577, 581, 585, 589, 593, 597, 601, 605, 609, 613, 617, 621, 625, 629, 633, 637, 641, 645, 649, 653, 657, 661, 665, 669, 673, 677, 681, 685, 689, 693, 697, 701, 705, 709, 713, 717, 721, 725, 729, 733, 737, 741, 745, 749, 753, 757, 761, 765, 769};
Volume(1) = {1};
Physical Surface(772) = {353, 357, 361, 365};
Physical Surface(773) = {577, 581, 585, 589};
Physical Volume(771) = {1};
