cl1 = 0.01;
Point(1) = {3.04, 2.174, 0.02274, 0.01};
Point(2) = {3.04156, 2.17412, 0.02274, 0.01};
Point(79) = {0.36791, 2.41254, 0.02274, 0.01};
Point(80) = {0.36709, 2.41388, 0.02274, 0.01};
Point(81) = {0.366071, 2.41507, 0.02274, 0.01};
Point(82) = {0.364878, 2.41609, 0.02274, 0.01};
Point(83) = {0.36354, 2.41691, 0.02274, 0.01};
Point(162) = {3.03546, 2.17509, 0.02274, 0.01};
Point(163) = {3.03691, 2.17449, 0.02274, 0.01};
Point(164) = {3.03844, 2.17412, 0.02274, 0.01};
Point(165) = {3.04, 2.174, 0.02411, 0.01};
Point(166) = {3.04156, 2.17412, 0.02411, 0.01};
Point(474) = {0.36791, 2.41254, 0.02411, 0.01};
Point(478) = {0.36709, 2.41388, 0.02411, 0.01};
Point(482) = {0.366071, 2.41507, 0.02411, 0.01};
Point(486) = {0.364878, 2.41609, 0.02411, 0.01};
Point(490) = {0.36354, 2.41691, 0.02411, 0.01};
Point(806) = {3.03546, 2.17509, 0.02411, 0.01};
Point(810) = {3.03691, 2.17449, 0.02411, 0.01};
Point(814) = {3.03844, 2.17412, 0.02411, 0.01};
Line(1) = {1, 2};
Line(79) = {79, 80};
Line(80) = {80, 81};
Line(81) = {81, 82};
Line(82) = {82, 83};
Line(162) = {162, 163};
Line(163) = {163, 164};
Line(164) = {164, 1};
Line(166) = {165, 166};
Line(244) = {474, 478};
Line(245) = {478, 482};
Line(246) = {482, 486};
Line(247) = {486, 490};
Line(327) = {806, 810};
Line(328) = {810, 814};
Line(329) = {814, 165};
Line(331) = {1, 165};
Line(332) = {2, 166};
Line(640) = {79, 474};
Line(644) = {80, 478};
Line(648) = {81, 482};
Line(652) = {82, 486};
Line(656) = {83, 490};
Line(972) = {162, 806};
Line(976) = {163, 810};
Line(980) = {164, 814};
Line Loop(333) = {1, 332, -166, -331};
Ruled Surface(333) = {333};
Line Loop(645) = {79, 644, -244, -640};
Ruled Surface(645) = {645};
Line Loop(649) = {80, 648, -245, -644};
Ruled Surface(649) = {649};
Line Loop(653) = {81, 652, -246, -648};
Ruled Surface(653) = {653};
Line Loop(657) = {82, 656, -247, -652};
Ruled Surface(657) = {657};
Line Loop(977) = {162, 976, -327, -972};
Ruled Surface(977) = {977};
Line Loop(981) = {163, 980, -328, -976};
Ruled Surface(981) = {981};
Line Loop(985) = {164, 331, -329, -980};
Ruled Surface(985) = {985};
Surface Loop(1) = {1, 986, 333, 337, 341, 345, 349, 353, 357, 361, 365, 369, 373, 377, 381, 385, 389, 393, 397, 401, 405, 409, 413, 417, 421, 425, 429, 433, 437, 441, 445, 449, 453, 457, 461, 465, 469, 473, 477, 481, 485, 489, 493, 497, 501, 505, 509, 513, 517, 521, 525, 529, 533, 537, 541, 545, 549, 553, 557, 561, 565, 569, 573, 577, 581, 585, 589, 593, 597, 601, 605, 609, 613, 617, 621, 625, 629, 633, 637, 641, 645, 649, 653, 657, 661, 665, 669, 673, 677, 681, 685, 689, 693, 697, 701, 705, 709, 713, 717, 721, 725, 729, 733, 737, 741, 745, 749, 753, 757, 761, 765, 769, 773, 777, 781, 785, 789, 793, 797, 801, 805, 809, 813, 817, 821, 825, 829, 833, 837, 841, 845, 849, 853, 857, 861, 865, 869, 873, 877, 881, 885, 889, 893, 897, 901, 905, 909, 913, 917, 921, 925, 929, 933, 937, 941, 945, 949, 953, 957, 961, 965, 969, 973, 977, 981, 985};
Volume(1) = {1};
Physical Surface(988) = {645, 649, 653, 657};
Physical Surface(989) = {333, 977, 981, 985};
Physical Volume(987) = {1};
