cl__1 = 0.01;
Point(1) = {1.34798, 0.579685, 0.10548, 0.01};
Point(2) = {1.37198, 0.579685, 0.10548, 0.01};
Point(3) = {1.37292, 0.579759, 0.10548, 0.01};
Point(4) = {1.37383, 0.579979, 0.10548, 0.01};
Point(5) = {1.3747, 0.580339, 0.10548, 0.01};
Point(6) = {1.3755, 0.580831, 0.10548, 0.01};
Point(7) = {1.37622, 0.581442, 0.10548, 0.01};
Point(8) = {1.37683, 0.582158, 0.10548, 0.01};
Point(9) = {1.37732, 0.582961, 0.10548, 0.01};
Point(10) = {1.37768, 0.583831, 0.10548, 0.01};
Point(11) = {1.3779, 0.584746, 0.10548, 0.01};
Point(12) = {1.37798, 0.585685, 0.10548, 0.01};
Point(13) = {1.3779, 0.586624, 0.10548, 0.01};
Point(14) = {1.37768, 0.587539, 0.10548, 0.01};
Point(15) = {1.37732, 0.588409, 0.10548, 0.01};
Point(16) = {1.37683, 0.589212, 0.10548, 0.01};
Point(17) = {1.37622, 0.589928, 0.10548, 0.01};
Point(18) = {1.3755, 0.590539, 0.10548, 0.01};
Point(19) = {1.3747, 0.591031, 0.10548, 0.01};
Point(20) = {1.37383, 0.591391, 0.10548, 0.01};
Point(21) = {1.37292, 0.591611, 0.10548, 0.01};
Point(22) = {1.37198, 0.591685, 0.10548, 0.01};
Point(23) = {1.34798, 0.591685, 0.10548, 0.01};
Point(24) = {1.34798, 0.58778, 0.10548, 0.01};
Point(25) = {1.32519, 0.58778, 0.10548, 0.01};
Point(26) = {1.32048, 0.592485, 0.10548, 0.01};
Point(27) = {1.32047, 0.592467, 0.10548, 0.01};
Point(28) = {1.32023, 0.592699, 0.10548, 0.01};
Point(29) = {1.31965, 0.592997, 0.10548, 0.01};
Point(30) = {1.319, 0.5931, 0.10548, 0.01};
Point(31) = {1.296, 0.5931, 0.10548, 0.01};
Point(32) = {1.296, 0.601, 0.10548, 0.01};
Point(33) = {1.276, 0.601, 0.10548, 0.01};
Point(34) = {1.276, 0.581, 0.10548, 0.01};
Point(35) = {1.296, 0.581, 0.10548, 0.01};
Point(36) = {1.296, 0.5889, 0.10548, 0.01};
Point(37) = {1.31813, 0.5889, 0.10548, 0.01};
Point(38) = {1.32283, 0.584195, 0.10548, 0.01};
Point(39) = {1.32337, 0.583809, 0.10548, 0.01};
Point(40) = {1.32399, 0.583606, 0.10548, 0.01};
Point(41) = {1.32432, 0.583606, 0.10548, 0.01};
Point(42) = {1.32432, 0.58358, 0.10548, 0.01};
Point(43) = {1.34798, 0.58358, 0.10548, 0.01};
Point(44) = {1.34798, 0.579685, 0.10685, 0.01};
Point(45) = {1.37198, 0.579685, 0.10685, 0.01};
Point(46) = {1.34798, 0.579685, 0.10548, 0.01};
Point(47) = {1.34798, 0.585685, 0.10548, 0.01};
Point(48) = {1.34798, 0.591685, 0.10548, 0.01};
Point(49) = {1.37292, 0.579759, 0.10685, 0.01};
Point(50) = {1.37198, 0.591685, 0.10548, 0.01};
Point(51) = {1.37265, 0.591647, 0.10548, 0.01};
Point(52) = {1.37331, 0.591535, 0.10548, 0.01};
Point(53) = {1.37383, 0.579979, 0.10685, 0.01};
Point(54) = {1.37458, 0.591091, 0.10548, 0.01};
Point(55) = {1.37517, 0.590765, 0.10548, 0.01};
Point(56) = {1.37572, 0.590376, 0.10548, 0.01};
Point(57) = {1.3747, 0.580339, 0.10685, 0.01};
Point(58) = {1.37667, 0.589426, 0.10548, 0.01};
Point(59) = {1.37706, 0.588877, 0.10548, 0.01};
Point(60) = {1.37738, 0.588288, 0.10548, 0.01};
Point(61) = {1.3755, 0.580831, 0.10685, 0.01};
Point(62) = {1.37783, 0.58702, 0.10548, 0.01};
Point(63) = {1.37794, 0.586357, 0.10548, 0.01};
Point(64) = {1.37798, 0.585685, 0.10548, 0.01};
Point(65) = {1.37622, 0.581442, 0.10685, 0.01};
Point(66) = {1.37783, 0.58435, 0.10548, 0.01};
Point(67) = {1.37764, 0.583703, 0.10548, 0.01};
Point(68) = {1.37738, 0.583082, 0.10548, 0.01};
Point(69) = {1.37683, 0.582158, 0.10685, 0.01};
Point(70) = {1.37667, 0.581944, 0.10548, 0.01};
Point(71) = {1.37622, 0.581442, 0.10548, 0.01};
Point(72) = {1.37572, 0.580994, 0.10548, 0.01};
Point(73) = {1.37732, 0.582961, 0.10685, 0.01};
Point(74) = {1.37458, 0.580279, 0.10548, 0.01};
Point(75) = {1.37396, 0.580022, 0.10548, 0.01};
Point(76) = {1.37331, 0.579835, 0.10548, 0.01};
Point(77) = {1.37768, 0.583831, 0.10685, 0.01};
Point(78) = {1.37198, 0.579685, 0.10548, 0.01};
Point(81) = {1.3779, 0.584746, 0.10685, 0.01};
Point(85) = {1.37798, 0.585685, 0.10685, 0.01};
Point(89) = {1.3779, 0.586624, 0.10685, 0.01};
Point(93) = {1.37768, 0.587539, 0.10685, 0.01};
Point(97) = {1.37732, 0.588409, 0.10685, 0.01};
Point(101) = {1.37683, 0.589212, 0.10685, 0.01};
Point(105) = {1.37622, 0.589928, 0.10685, 0.01};
Point(109) = {1.3755, 0.590539, 0.10685, 0.01};
Point(113) = {1.3747, 0.591031, 0.10685, 0.01};
Point(117) = {1.37383, 0.591391, 0.10685, 0.01};
Point(121) = {1.37292, 0.591611, 0.10685, 0.01};
Point(125) = {1.37198, 0.591685, 0.10685, 0.01};
Point(129) = {1.34798, 0.591685, 0.10685, 0.01};
Point(133) = {1.34798, 0.58778, 0.10685, 0.01};
Point(137) = {1.32519, 0.58778, 0.10685, 0.01};
Point(141) = {1.32048, 0.592485, 0.10685, 0.01};
Point(145) = {1.32047, 0.592467, 0.10685, 0.01};
Point(149) = {1.32023, 0.592699, 0.10685, 0.01};
Point(153) = {1.31965, 0.592997, 0.10685, 0.01};
Point(157) = {1.319, 0.5931, 0.10685, 0.01};
Point(161) = {1.296, 0.5931, 0.10685, 0.01};
Point(165) = {1.296, 0.601, 0.10685, 0.01};
Point(169) = {1.276, 0.601, 0.10685, 0.01};
Point(173) = {1.276, 0.581, 0.10685, 0.01};
Point(177) = {1.296, 0.581, 0.10685, 0.01};
Point(181) = {1.296, 0.5889, 0.10685, 0.01};
Point(185) = {1.31813, 0.5889, 0.10685, 0.01};
Point(189) = {1.32283, 0.584195, 0.10685, 0.01};
Point(193) = {1.32337, 0.583809, 0.10685, 0.01};
Point(197) = {1.32399, 0.583606, 0.10685, 0.01};
Point(201) = {1.32432, 0.583606, 0.10685, 0.01};
Point(205) = {1.32432, 0.58358, 0.10685, 0.01};
Point(209) = {1.34798, 0.58358, 0.10685, 0.01};
Line(1) = {1, 2};
Line(2) = {2, 3};
Line(3) = {3, 4};
Line(4) = {4, 5};
Line(5) = {5, 6};
Line(6) = {6, 7};
Line(7) = {7, 8};
Line(8) = {8, 9};
Line(9) = {9, 10};
Line(10) = {10, 11};
Line(11) = {11, 12};
Line(12) = {12, 13};
Line(13) = {13, 14};
Line(14) = {14, 15};
Line(15) = {15, 16};
Line(16) = {16, 17};
Line(17) = {17, 18};
Line(18) = {18, 19};
Line(19) = {19, 20};
Line(20) = {20, 21};
Line(21) = {21, 22};
Line(22) = {22, 23};
Line(23) = {23, 24};
Line(24) = {24, 25};
Line(25) = {25, 26};
Line(26) = {26, 27};
Line(27) = {27, 28};
Line(28) = {28, 29};
Line(29) = {29, 30};
Line(30) = {30, 31};
Line(31) = {31, 32};
Line(32) = {32, 33};
Line(33) = {33, 34};
Line(34) = {34, 35};
Line(35) = {35, 36};
Line(36) = {36, 37};
Line(37) = {37, 38};
Line(38) = {38, 39};
Line(39) = {39, 40};
Line(40) = {40, 41};
Line(41) = {41, 42};
Line(42) = {42, 43};
Line(43) = {43, 1};
Line(44) = {44, 45};
Line(45) = {44, 45};
Line(46) = {45, 49};
Line(47) = {49, 53};
Line(48) = {53, 57};
Line(49) = {57, 61};
Line(50) = {61, 65};
Line(51) = {65, 69};
Line(52) = {69, 73};
Line(53) = {73, 77};
Line(54) = {77, 81};
Line(55) = {81, 85};
Line(56) = {85, 89};
Line(57) = {89, 93};
Line(58) = {93, 97};
Line(59) = {97, 101};
Line(60) = {101, 105};
Line(61) = {105, 109};
Line(62) = {109, 113};
Line(63) = {113, 117};
Line(64) = {117, 121};
Line(65) = {121, 125};
Line(66) = {125, 129};
Line(67) = {129, 133};
Line(68) = {133, 137};
Line(69) = {137, 141};
Line(70) = {141, 145};
Line(71) = {145, 149};
Line(72) = {149, 153};
Line(73) = {153, 157};
Line(74) = {157, 161};
Line(75) = {161, 165};
Line(76) = {165, 169};
Line(77) = {169, 173};
Line(78) = {173, 177};
Line(79) = {177, 181};
Line(80) = {181, 185};
Line(81) = {185, 189};
Line(82) = {189, 193};
Line(83) = {193, 197};
Line(84) = {197, 201};
Line(85) = {201, 205};
Line(86) = {205, 209};
Line(87) = {209, 44};
Line(89) = {1, 44};
Line(90) = {2, 45};
Line(94) = {3, 49};
Line(98) = {4, 53};
Line(102) = {5, 57};
Line(106) = {6, 61};
Line(110) = {7, 65};
Line(114) = {8, 69};
Line(118) = {9, 73};
Line(122) = {10, 77};
Line(126) = {11, 81};
Line(130) = {12, 85};
Line(134) = {13, 89};
Line(138) = {14, 93};
Line(142) = {15, 97};
Line(146) = {16, 101};
Line(150) = {17, 105};
Line(154) = {18, 109};
Line(158) = {19, 113};
Line(162) = {20, 117};
Line(166) = {21, 121};
Line(170) = {22, 125};
Line(174) = {23, 129};
Line(178) = {24, 133};
Line(182) = {25, 137};
Line(186) = {26, 141};
Line(190) = {27, 145};
Line(194) = {28, 149};
Line(198) = {29, 153};
Line(202) = {30, 157};
Line(206) = {31, 161};
Line(210) = {32, 165};
Line(214) = {33, 169};
Line(218) = {34, 173};
Line(222) = {35, 177};
Line(226) = {36, 181};
Line(230) = {37, 185};
Line(234) = {38, 189};
Line(238) = {39, 193};
Line(242) = {40, 197};
Line(246) = {41, 201};
Line(250) = {42, 205};
Line(254) = {43, 209};
Line Loop(1) = {1, 2, 3, 4, 5, 6, 7, 8, 9, 10, 11, 12, 13, 14, 15, 16, 17, 18, 19, 20, 21, 22, 23, 24, 25, 26, 27, 28, 29, 30, 31, 32, 33, 34, 35, 36, 37, 38, 39, 40, 41, 42, 43};
Plane Surface(1) = {1};
Line Loop(91) = {1, 90, -45, -89};
Ruled Surface(91) = {91};
Line Loop(95) = {2, 94, -46, -90};
Ruled Surface(95) = {95};
Line Loop(99) = {3, 98, -47, -94};
Ruled Surface(99) = {99};
Line Loop(103) = {4, 102, -48, -98};
Ruled Surface(103) = {103};
Line Loop(107) = {5, 106, -49, -102};
Ruled Surface(107) = {107};
Line Loop(111) = {6, 110, -50, -106};
Ruled Surface(111) = {111};
Line Loop(115) = {7, 114, -51, -110};
Ruled Surface(115) = {115};
Line Loop(119) = {8, 118, -52, -114};
Ruled Surface(119) = {119};
Line Loop(123) = {9, 122, -53, -118};
Ruled Surface(123) = {123};
Line Loop(127) = {10, 126, -54, -122};
Ruled Surface(127) = {127};
Line Loop(131) = {11, 130, -55, -126};
Ruled Surface(131) = {131};
Line Loop(135) = {12, 134, -56, -130};
Ruled Surface(135) = {135};
Line Loop(139) = {13, 138, -57, -134};
Ruled Surface(139) = {139};
Line Loop(143) = {14, 142, -58, -138};
Ruled Surface(143) = {143};
Line Loop(147) = {15, 146, -59, -142};
Ruled Surface(147) = {147};
Line Loop(151) = {16, 150, -60, -146};
Ruled Surface(151) = {151};
Line Loop(155) = {17, 154, -61, -150};
Ruled Surface(155) = {155};
Line Loop(159) = {18, 158, -62, -154};
Ruled Surface(159) = {159};
Line Loop(163) = {19, 162, -63, -158};
Ruled Surface(163) = {163};
Line Loop(167) = {20, 166, -64, -162};
Ruled Surface(167) = {167};
Line Loop(171) = {21, 170, -65, -166};
Ruled Surface(171) = {171};
Line Loop(175) = {22, 174, -66, -170};
Ruled Surface(175) = {175};
Line Loop(179) = {23, 178, -67, -174};
Ruled Surface(179) = {179};
Line Loop(183) = {24, 182, -68, -178};
Ruled Surface(183) = {183};
Line Loop(187) = {25, 186, -69, -182};
Ruled Surface(187) = {187};
Line Loop(191) = {26, 190, -70, -186};
Ruled Surface(191) = {191};
Line Loop(195) = {27, 194, -71, -190};
Ruled Surface(195) = {195};
Line Loop(199) = {28, 198, -72, -194};
Ruled Surface(199) = {199};
Line Loop(203) = {29, 202, -73, -198};
Ruled Surface(203) = {203};
Line Loop(207) = {30, 206, -74, -202};
Ruled Surface(207) = {207};
Line Loop(211) = {31, 210, -75, -206};
Ruled Surface(211) = {211};
Line Loop(215) = {32, 214, -76, -210};
Ruled Surface(215) = {215};
Line Loop(219) = {33, 218, -77, -214};
Ruled Surface(219) = {219};
Line Loop(223) = {34, 222, -78, -218};
Ruled Surface(223) = {223};
Line Loop(227) = {35, 226, -79, -222};
Ruled Surface(227) = {227};
Line Loop(231) = {36, 230, -80, -226};
Ruled Surface(231) = {231};
Line Loop(235) = {37, 234, -81, -230};
Ruled Surface(235) = {235};
Line Loop(239) = {38, 238, -82, -234};
Ruled Surface(239) = {239};
Line Loop(243) = {39, 242, -83, -238};
Ruled Surface(243) = {243};
Line Loop(247) = {40, 246, -84, -242};
Ruled Surface(247) = {247};
Line Loop(251) = {41, 250, -85, -246};
Ruled Surface(251) = {251};
Line Loop(255) = {42, 254, -86, -250};
Ruled Surface(255) = {255};
Line Loop(259) = {43, 89, -87, -254};
Ruled Surface(259) = {259};
Line Loop(260) = {45, 46, 47, 48, 49, 50, 51, 52, 53, 54, 55, 56, 57, 58, 59, 60, 61, 62, 63, 64, 65, 66, 67, 68, 69, 70, 71, 72, 73, 74, 75, 76, 77, 78, 79, 80, 81, 82, 83, 84, 85, 86, 87};
Plane Surface(260) = {260};
Surface Loop(1) = {1, 260, 91, 95, 99, 103, 107, 111, 115, 119, 123, 127, 131, 135, 139, 143, 147, 151, 155, 159, 163, 167, 171, 175, 179, 183, 187, 191, 195, 199, 203, 207, 211, 215, 219, 223, 227, 231, 235, 239, 243, 247, 251, 255, 259};
Volume(1) = {1};
Physical Volume(261) = {1};
Physical Surface(262) = {219};
Physical Surface(263) = {139, 131, 135, 127, 143};
