cl__1 = 0.01;
Point(1) = {-0.113167, 0.312033, 0, 0.01};
Point(2) = {-0.107334, 0.312033, 0, 0.01};
Point(3) = {-0.107334, 0.312058, 0, 0.01};
Point(4) = {-0.106598, 0.312125, 0, 0.01};
Point(5) = {-0.101598, 0.313391, 0, 0.01};
Point(6) = {-0.101608, 0.313427, 0, 0.01};
Point(7) = {-0.10114, 0.313547, 0, 0.01};
Point(8) = {-0.095305, 0.316081, 0, 0.01};
Point(9) = {-0.095316, 0.316106, 0, 0.01};
Point(10) = {-0.09468500000000001, 0.316445, 0, 0.01};
Point(11) = {-0.089686, 0.320245, 0, 0.01};
Point(12) = {-0.08970599999999999, 0.320272, 0, 0.01};
Point(13) = {-0.08924600000000001, 0.320655, 0, 0.01};
Point(14) = {-0.085913, 0.324455, 0, 0.01};
Point(15) = {-0.085928, 0.324468, 0, 0.01};
Point(16) = {-0.085478, 0.325105, 0, 0.01};
Point(17) = {-0.082977, 0.330171, 0, 0.01};
Point(18) = {-0.08301, 0.330187, 0, 0.01};
Point(19) = {-0.082814, 0.330572, 0, 0.01};
Point(20) = {-0.082667, 0.331499, 0, 0.01};
Point(21) = {-0.082667, 0.335933, 0, 0.01};
Point(22) = {-0.08266900000000001, 0.335933, 0, 0.01};
Point(23) = {-0.082667, 0.335944, 0, 0.01};
Point(24) = {-0.082817, 0.33687, 0, 0.01};
Point(25) = {-0.084483, 0.341937, 0, 0.01};
Point(26) = {-0.084512, 0.341928, 0, 0.01};
Point(27) = {-0.084577, 0.342185, 0, 0.01};
Point(28) = {-0.085078, 0.342979, 0, 0.01};
Point(29) = {-0.08841300000000001, 0.346779, 0, 0.01};
Point(30) = {-0.08913500000000001, 0.347379, 0, 0.01};
Point(31) = {-0.090007, 0.347726, 0, 0.01};
Point(32) = {-0.090944, 0.347787, 0, 0.01};
Point(33) = {-0.091853, 0.347556, 0, 0.01};
Point(34) = {-0.09264699999999999, 0.347055, 0, 0.01};
Point(35) = {-0.093247, 0.346333, 0, 0.01};
Point(36) = {-0.093594, 0.345461, 0, 0.01};
Point(37) = {-0.093655, 0.344524, 0, 0.01};
Point(38) = {-0.09342399999999999, 0.343615, 0, 0.01};
Point(39) = {-0.09292300000000001, 0.342821, 0, 0.01};
Point(40) = {-0.089992, 0.339481, 0, 0.01};
Point(41) = {-0.088667, 0.335452, 0, 0.01};
Point(42) = {-0.088667, 0.332199, 0, 0.01};
Point(43) = {-0.090683, 0.328115, 0, 0.01};
Point(44) = {-0.093557, 0.324838, 0, 0.01};
Point(45) = {-0.098027, 0.32144, 0, 0.01};
Point(46) = {-0.103307, 0.319148, 0, 0.01};
Point(47) = {-0.107708, 0.318033, 0, 0.01};
Point(48) = {-0.112885, 0.318033, 0, 0.01};
Point(49) = {-0.118946, 0.319184, 0, 0.01};
Point(50) = {-0.124141, 0.32144, 0, 0.01};
Point(51) = {-0.12852, 0.324769, 0, 0.01};
Point(52) = {-0.131249, 0.328399, 0, 0.01};
Point(53) = {-0.132565, 0.3334, 0, 0.01};
Point(54) = {-0.131249, 0.338401, 0, 0.01};
Point(55) = {-0.12852, 0.342031, 0, 0.01};
Point(56) = {-0.124657, 0.344967, 0, 0.01};
Point(57) = {-0.113668, 0.344967, 0, 0.01};
Point(58) = {-0.113668, 0.3353, 0, 0.01};
Point(59) = {-0.113521, 0.334373, 0, 0.01};
Point(60) = {-0.113095, 0.333537, 0, 0.01};
Point(61) = {-0.112431, 0.332873, 0, 0.01};
Point(62) = {-0.111595, 0.332447, 0, 0.01};
Point(63) = {-0.110668, 0.3323, 0, 0.01};
Point(64) = {-0.109741, 0.332447, 0, 0.01};
Point(65) = {-0.108905, 0.332873, 0, 0.01};
Point(66) = {-0.108241, 0.333537, 0, 0.01};
Point(67) = {-0.107815, 0.334373, 0, 0.01};
Point(68) = {-0.107668, 0.3353, 0, 0.01};
Point(69) = {-0.107668, 0.347967, 0, 0.01};
Point(70) = {-0.107815, 0.348894, 0, 0.01};
Point(71) = {-0.108241, 0.34973, 0, 0.01};
Point(72) = {-0.108905, 0.350394, 0, 0.01};
Point(73) = {-0.109741, 0.35082, 0, 0.01};
Point(74) = {-0.110668, 0.350967, 0, 0.01};
Point(75) = {-0.125668, 0.350967, 0, 0.01};
Point(76) = {-0.125668, 0.350957, 0, 0.01};
Point(77) = {-0.125733, 0.350966, 0, 0.01};
Point(78) = {-0.126656, 0.350799, 0, 0.01};
Point(79) = {-0.127483, 0.350355, 0, 0.01};
Point(80) = {-0.132483, 0.346556, 0, 0.01};
Point(81) = {-0.132474, 0.346543, 0, 0.01};
Point(82) = {-0.133066, 0.34597, 0, 0.01};
Point(83) = {-0.136399, 0.341536, 0, 0.01};
Point(84) = {-0.136378, 0.34152, 0, 0.01};
Point(85) = {-0.136524, 0.341355, 0, 0.01};
Point(86) = {-0.136902, 0.340496, 0, 0.01};
Point(87) = {-0.138568, 0.334163, 0, 0.01};
Point(88) = {-0.138535, 0.334155, 0, 0.01};
Point(89) = {-0.138662, 0.333571, 0, 0.01};
Point(90) = {-0.138568, 0.332637, 0, 0.01};
Point(91) = {-0.136902, 0.326304, 0, 0.01};
Point(92) = {-0.136877, 0.326311, 0, 0.01};
Point(93) = {-0.136839, 0.326094, 0, 0.01};
Point(94) = {-0.136399, 0.325264, 0, 0.01};
Point(95) = {-0.133066, 0.32083, 0, 0.01};
Point(96) = {-0.133053, 0.32084, 0, 0.01};
Point(97) = {-0.132483, 0.320244, 0, 0.01};
Point(98) = {-0.127483, 0.316445, 0, 0.01};
Point(99) = {-0.127467, 0.316466, 0, 0.01};
Point(100) = {-0.126863, 0.316081, 0, 0.01};
Point(101) = {-0.121029, 0.313547, 0, 0.01};
Point(102) = {-0.121017, 0.313576, 0, 0.01};
Point(103) = {-0.120394, 0.313352, 0, 0.01};
Point(104) = {-0.113727, 0.312086, 0, 0.01};
Point(105) = {-0.11372, 0.312121, 0, 0.01};
Point(106) = {-0.113167, 0.312033, 0.00137, 0.01};
Point(107) = {-0.107334, 0.312033, 0.00137, 0.01};
Point(111) = {-0.107334, 0.312058, 0.00137, 0.01};
Point(115) = {-0.106598, 0.312125, 0.00137, 0.01};
Point(119) = {-0.101598, 0.313391, 0.00137, 0.01};
Point(123) = {-0.101608, 0.313427, 0.00137, 0.01};
Point(127) = {-0.10114, 0.313547, 0.00137, 0.01};
Point(131) = {-0.095305, 0.316081, 0.00137, 0.01};
Point(135) = {-0.095316, 0.316106, 0.00137, 0.01};
Point(139) = {-0.09468500000000001, 0.316445, 0.00137, 0.01};
Point(143) = {-0.089686, 0.320245, 0.00137, 0.01};
Point(147) = {-0.08970599999999999, 0.320272, 0.00137, 0.01};
Point(151) = {-0.08924600000000001, 0.320655, 0.00137, 0.01};
Point(155) = {-0.085913, 0.324455, 0.00137, 0.01};
Point(159) = {-0.085928, 0.324468, 0.00137, 0.01};
Point(163) = {-0.085478, 0.325105, 0.00137, 0.01};
Point(167) = {-0.082977, 0.330171, 0.00137, 0.01};
Point(171) = {-0.08301, 0.330187, 0.00137, 0.01};
Point(175) = {-0.082814, 0.330572, 0.00137, 0.01};
Point(179) = {-0.082667, 0.331499, 0.00137, 0.01};
Point(183) = {-0.082667, 0.335933, 0.00137, 0.01};
Point(187) = {-0.08266900000000001, 0.335933, 0.00137, 0.01};
Point(191) = {-0.082667, 0.335944, 0.00137, 0.01};
Point(195) = {-0.082817, 0.33687, 0.00137, 0.01};
Point(199) = {-0.084483, 0.341937, 0.00137, 0.01};
Point(203) = {-0.084512, 0.341928, 0.00137, 0.01};
Point(207) = {-0.084577, 0.342185, 0.00137, 0.01};
Point(211) = {-0.085078, 0.342979, 0.00137, 0.01};
Point(215) = {-0.08841300000000001, 0.346779, 0.00137, 0.01};
Point(219) = {-0.08913500000000001, 0.347379, 0.00137, 0.01};
Point(223) = {-0.090007, 0.347726, 0.00137, 0.01};
Point(227) = {-0.090944, 0.347787, 0.00137, 0.01};
Point(231) = {-0.091853, 0.347556, 0.00137, 0.01};
Point(235) = {-0.09264699999999999, 0.347055, 0.00137, 0.01};
Point(239) = {-0.093247, 0.346333, 0.00137, 0.01};
Point(243) = {-0.093594, 0.345461, 0.00137, 0.01};
Point(247) = {-0.093655, 0.344524, 0.00137, 0.01};
Point(251) = {-0.09342399999999999, 0.343615, 0.00137, 0.01};
Point(255) = {-0.09292300000000001, 0.342821, 0.00137, 0.01};
Point(259) = {-0.089992, 0.339481, 0.00137, 0.01};
Point(263) = {-0.088667, 0.335452, 0.00137, 0.01};
Point(267) = {-0.088667, 0.332199, 0.00137, 0.01};
Point(271) = {-0.090683, 0.328115, 0.00137, 0.01};
Point(275) = {-0.093557, 0.324838, 0.00137, 0.01};
Point(279) = {-0.098027, 0.32144, 0.00137, 0.01};
Point(283) = {-0.103307, 0.319148, 0.00137, 0.01};
Point(287) = {-0.107708, 0.318033, 0.00137, 0.01};
Point(291) = {-0.112885, 0.318033, 0.00137, 0.01};
Point(295) = {-0.118946, 0.319184, 0.00137, 0.01};
Point(299) = {-0.124141, 0.32144, 0.00137, 0.01};
Point(303) = {-0.12852, 0.324769, 0.00137, 0.01};
Point(307) = {-0.131249, 0.328399, 0.00137, 0.01};
Point(311) = {-0.132565, 0.3334, 0.00137, 0.01};
Point(315) = {-0.131249, 0.338401, 0.00137, 0.01};
Point(319) = {-0.12852, 0.342031, 0.00137, 0.01};
Point(323) = {-0.124657, 0.344967, 0.00137, 0.01};
Point(327) = {-0.113668, 0.344967, 0.00137, 0.01};
Point(331) = {-0.113668, 0.3353, 0.00137, 0.01};
Point(335) = {-0.113521, 0.334373, 0.00137, 0.01};
Point(339) = {-0.113095, 0.333537, 0.00137, 0.01};
Point(343) = {-0.112431, 0.332873, 0.00137, 0.01};
Point(347) = {-0.111595, 0.332447, 0.00137, 0.01};
Point(351) = {-0.110668, 0.3323, 0.00137, 0.01};
Point(355) = {-0.109741, 0.332447, 0.00137, 0.01};
Point(359) = {-0.108905, 0.332873, 0.00137, 0.01};
Point(363) = {-0.108241, 0.333537, 0.00137, 0.01};
Point(367) = {-0.107815, 0.334373, 0.00137, 0.01};
Point(371) = {-0.107668, 0.3353, 0.00137, 0.01};
Point(375) = {-0.107668, 0.347967, 0.00137, 0.01};
Point(379) = {-0.107815, 0.348894, 0.00137, 0.01};
Point(383) = {-0.108241, 0.34973, 0.00137, 0.01};
Point(387) = {-0.108905, 0.350394, 0.00137, 0.01};
Point(391) = {-0.109741, 0.35082, 0.00137, 0.01};
Point(395) = {-0.110668, 0.350967, 0.00137, 0.01};
Point(399) = {-0.125668, 0.350967, 0.00137, 0.01};
Point(403) = {-0.125668, 0.350957, 0.00137, 0.01};
Point(407) = {-0.125733, 0.350966, 0.00137, 0.01};
Point(411) = {-0.126656, 0.350799, 0.00137, 0.01};
Point(415) = {-0.127483, 0.350355, 0.00137, 0.01};
Point(419) = {-0.132483, 0.346556, 0.00137, 0.01};
Point(423) = {-0.132474, 0.346543, 0.00137, 0.01};
Point(427) = {-0.133066, 0.34597, 0.00137, 0.01};
Point(431) = {-0.136399, 0.341536, 0.00137, 0.01};
Point(435) = {-0.136378, 0.34152, 0.00137, 0.01};
Point(439) = {-0.136524, 0.341355, 0.00137, 0.01};
Point(443) = {-0.136902, 0.340496, 0.00137, 0.01};
Point(447) = {-0.138568, 0.334163, 0.00137, 0.01};
Point(451) = {-0.138535, 0.334155, 0.00137, 0.01};
Point(455) = {-0.138662, 0.333571, 0.00137, 0.01};
Point(459) = {-0.138568, 0.332637, 0.00137, 0.01};
Point(463) = {-0.136902, 0.326304, 0.00137, 0.01};
Point(467) = {-0.136877, 0.326311, 0.00137, 0.01};
Point(471) = {-0.136839, 0.326094, 0.00137, 0.01};
Point(475) = {-0.136399, 0.325264, 0.00137, 0.01};
Point(479) = {-0.133066, 0.32083, 0.00137, 0.01};
Point(483) = {-0.133053, 0.32084, 0.00137, 0.01};
Point(487) = {-0.132483, 0.320244, 0.00137, 0.01};
Point(491) = {-0.127483, 0.316445, 0.00137, 0.01};
Point(495) = {-0.127467, 0.316466, 0.00137, 0.01};
Point(499) = {-0.126863, 0.316081, 0.00137, 0.01};
Point(503) = {-0.121029, 0.313547, 0.00137, 0.01};
Point(507) = {-0.121017, 0.313576, 0.00137, 0.01};
Point(511) = {-0.120394, 0.313352, 0.00137, 0.01};
Point(515) = {-0.113727, 0.312086, 0.00137, 0.01};
Point(519) = {-0.11372, 0.312121, 0.00137, 0.01};
Line(1) = {1, 2};
Line(2) = {2, 3};
Line(3) = {3, 4};
Line(4) = {4, 5};
Line(5) = {5, 6};
Line(6) = {6, 7};
Line(7) = {7, 8};
Line(8) = {8, 9};
Line(9) = {9, 10};
Line(10) = {10, 11};
Line(11) = {11, 12};
Line(12) = {12, 13};
Line(13) = {13, 14};
Line(14) = {14, 15};
Line(15) = {15, 16};
Line(16) = {16, 17};
Line(17) = {17, 18};
Line(18) = {18, 19};
Line(19) = {19, 20};
Line(20) = {20, 21};
Line(21) = {21, 22};
Line(22) = {22, 23};
Line(23) = {23, 24};
Line(24) = {24, 25};
Line(25) = {25, 26};
Line(26) = {26, 27};
Line(27) = {27, 28};
Line(28) = {28, 29};
Line(29) = {29, 30};
Line(30) = {30, 31};
Line(31) = {31, 32};
Line(32) = {32, 33};
Line(33) = {33, 34};
Line(34) = {34, 35};
Line(35) = {35, 36};
Line(36) = {36, 37};
Line(37) = {37, 38};
Line(38) = {38, 39};
Line(39) = {39, 40};
Line(40) = {40, 41};
Line(41) = {41, 42};
Line(42) = {42, 43};
Line(43) = {43, 44};
Line(44) = {44, 45};
Line(45) = {45, 46};
Line(46) = {46, 47};
Line(47) = {47, 48};
Line(48) = {48, 49};
Line(49) = {49, 50};
Line(50) = {50, 51};
Line(51) = {51, 52};
Line(52) = {52, 53};
Line(53) = {53, 54};
Line(54) = {54, 55};
Line(55) = {55, 56};
Line(56) = {56, 57};
Line(57) = {57, 58};
Line(58) = {58, 59};
Line(59) = {59, 60};
Line(60) = {60, 61};
Line(61) = {61, 62};
Line(62) = {62, 63};
Line(63) = {63, 64};
Line(64) = {64, 65};
Line(65) = {65, 66};
Line(66) = {66, 67};
Line(67) = {67, 68};
Line(68) = {68, 69};
Line(69) = {69, 70};
Line(70) = {70, 71};
Line(71) = {71, 72};
Line(72) = {72, 73};
Line(73) = {73, 74};
Line(74) = {74, 75};
Line(75) = {75, 76};
Line(76) = {76, 77};
Line(77) = {77, 78};
Line(78) = {78, 79};
Line(79) = {79, 80};
Line(80) = {80, 81};
Line(81) = {81, 82};
Line(82) = {82, 83};
Line(83) = {83, 84};
Line(84) = {84, 85};
Line(85) = {85, 86};
Line(86) = {86, 87};
Line(87) = {87, 88};
Line(88) = {88, 89};
Line(89) = {89, 90};
Line(90) = {90, 91};
Line(91) = {91, 92};
Line(92) = {92, 93};
Line(93) = {93, 94};
Line(94) = {94, 95};
Line(95) = {95, 96};
Line(96) = {96, 97};
Line(97) = {97, 98};
Line(98) = {98, 99};
Line(99) = {99, 100};
Line(100) = {100, 101};
Line(101) = {101, 102};
Line(102) = {102, 103};
Line(103) = {103, 104};
Line(104) = {104, 105};
Line(105) = {105, 1};
Line(107) = {106, 107};
Line(108) = {107, 111};
Line(109) = {111, 115};
Line(110) = {115, 119};
Line(111) = {119, 123};
Line(112) = {123, 127};
Line(113) = {127, 131};
Line(114) = {131, 135};
Line(115) = {135, 139};
Line(116) = {139, 143};
Line(117) = {143, 147};
Line(118) = {147, 151};
Line(119) = {151, 155};
Line(120) = {155, 159};
Line(121) = {159, 163};
Line(122) = {163, 167};
Line(123) = {167, 171};
Line(124) = {171, 175};
Line(125) = {175, 179};
Line(126) = {179, 183};
Line(127) = {183, 187};
Line(128) = {187, 191};
Line(129) = {191, 195};
Line(130) = {195, 199};
Line(131) = {199, 203};
Line(132) = {203, 207};
Line(133) = {207, 211};
Line(134) = {211, 215};
Line(135) = {215, 219};
Line(136) = {219, 223};
Line(137) = {223, 227};
Line(138) = {227, 231};
Line(139) = {231, 235};
Line(140) = {235, 239};
Line(141) = {239, 243};
Line(142) = {243, 247};
Line(143) = {247, 251};
Line(144) = {251, 255};
Line(145) = {255, 259};
Line(146) = {259, 263};
Line(147) = {263, 267};
Line(148) = {267, 271};
Line(149) = {271, 275};
Line(150) = {275, 279};
Line(151) = {279, 283};
Line(152) = {283, 287};
Line(153) = {287, 291};
Line(154) = {291, 295};
Line(155) = {295, 299};
Line(156) = {299, 303};
Line(157) = {303, 307};
Line(158) = {307, 311};
Line(159) = {311, 315};
Line(160) = {315, 319};
Line(161) = {319, 323};
Line(162) = {323, 327};
Line(163) = {327, 331};
Line(164) = {331, 335};
Line(165) = {335, 339};
Line(166) = {339, 343};
Line(167) = {343, 347};
Line(168) = {347, 351};
Line(169) = {351, 355};
Line(170) = {355, 359};
Line(171) = {359, 363};
Line(172) = {363, 367};
Line(173) = {367, 371};
Line(174) = {371, 375};
Line(175) = {375, 379};
Line(176) = {379, 383};
Line(177) = {383, 387};
Line(178) = {387, 391};
Line(179) = {391, 395};
Line(180) = {395, 399};
Line(181) = {399, 403};
Line(182) = {403, 407};
Line(183) = {407, 411};
Line(184) = {411, 415};
Line(185) = {415, 419};
Line(186) = {419, 423};
Line(187) = {423, 427};
Line(188) = {427, 431};
Line(189) = {431, 435};
Line(190) = {435, 439};
Line(191) = {439, 443};
Line(192) = {443, 447};
Line(193) = {447, 451};
Line(194) = {451, 455};
Line(195) = {455, 459};
Line(196) = {459, 463};
Line(197) = {463, 467};
Line(198) = {467, 471};
Line(199) = {471, 475};
Line(200) = {475, 479};
Line(201) = {479, 483};
Line(202) = {483, 487};
Line(203) = {487, 491};
Line(204) = {491, 495};
Line(205) = {495, 499};
Line(206) = {499, 503};
Line(207) = {503, 507};
Line(208) = {507, 511};
Line(209) = {511, 515};
Line(210) = {515, 519};
Line(211) = {519, 106};
Line(213) = {1, 106};
Line(214) = {2, 107};
Line(218) = {3, 111};
Line(222) = {4, 115};
Line(226) = {5, 119};
Line(230) = {6, 123};
Line(234) = {7, 127};
Line(238) = {8, 131};
Line(242) = {9, 135};
Line(246) = {10, 139};
Line(250) = {11, 143};
Line(254) = {12, 147};
Line(258) = {13, 151};
Line(262) = {14, 155};
Line(266) = {15, 159};
Line(270) = {16, 163};
Line(274) = {17, 167};
Line(278) = {18, 171};
Line(282) = {19, 175};
Line(286) = {20, 179};
Line(290) = {21, 183};
Line(294) = {22, 187};
Line(298) = {23, 191};
Line(302) = {24, 195};
Line(306) = {25, 199};
Line(310) = {26, 203};
Line(314) = {27, 207};
Line(318) = {28, 211};
Line(322) = {29, 215};
Line(326) = {30, 219};
Line(330) = {31, 223};
Line(334) = {32, 227};
Line(338) = {33, 231};
Line(342) = {34, 235};
Line(346) = {35, 239};
Line(350) = {36, 243};
Line(354) = {37, 247};
Line(358) = {38, 251};
Line(362) = {39, 255};
Line(366) = {40, 259};
Line(370) = {41, 263};
Line(374) = {42, 267};
Line(378) = {43, 271};
Line(382) = {44, 275};
Line(386) = {45, 279};
Line(390) = {46, 283};
Line(394) = {47, 287};
Line(398) = {48, 291};
Line(402) = {49, 295};
Line(406) = {50, 299};
Line(410) = {51, 303};
Line(414) = {52, 307};
Line(418) = {53, 311};
Line(422) = {54, 315};
Line(426) = {55, 319};
Line(430) = {56, 323};
Line(434) = {57, 327};
Line(438) = {58, 331};
Line(442) = {59, 335};
Line(446) = {60, 339};
Line(450) = {61, 343};
Line(454) = {62, 347};
Line(458) = {63, 351};
Line(462) = {64, 355};
Line(466) = {65, 359};
Line(470) = {66, 363};
Line(474) = {67, 367};
Line(478) = {68, 371};
Line(482) = {69, 375};
Line(486) = {70, 379};
Line(490) = {71, 383};
Line(494) = {72, 387};
Line(498) = {73, 391};
Line(502) = {74, 395};
Line(506) = {75, 399};
Line(510) = {76, 403};
Line(514) = {77, 407};
Line(518) = {78, 411};
Line(522) = {79, 415};
Line(526) = {80, 419};
Line(530) = {81, 423};
Line(534) = {82, 427};
Line(538) = {83, 431};
Line(542) = {84, 435};
Line(546) = {85, 439};
Line(550) = {86, 443};
Line(554) = {87, 447};
Line(558) = {88, 451};
Line(562) = {89, 455};
Line(566) = {90, 459};
Line(570) = {91, 463};
Line(574) = {92, 467};
Line(578) = {93, 471};
Line(582) = {94, 475};
Line(586) = {95, 479};
Line(590) = {96, 483};
Line(594) = {97, 487};
Line(598) = {98, 491};
Line(602) = {99, 495};
Line(606) = {100, 499};
Line(610) = {101, 503};
Line(614) = {102, 507};
Line(618) = {103, 511};
Line(622) = {104, 515};
Line(626) = {105, 519};
Line Loop(1) = {1, 2, 3, 4, 5, 6, 7, 8, 9, 10, 11, 12, 13, 14, 15, 16, 17, 18, 19, 20, 21, 22, 23, 24, 25, 26, 27, 28, 29, 30, 31, 32, 33, 34, 35, 36, 37, 38, 39, 40, 41, 42, 43, 44, 45, 46, 47, 48, 49, 50, 51, 52, 53, 54, 55, 56, 57, 58, 59, 60, 61, 62, 63, 64, 65, 66, 67, 68, 69, 70, 71, 72, 73, 74, 75, 76, 77, 78, 79, 80, 81, 82, 83, 84, 85, 86, 87, 88, 89, 90, 91, 92, 93, 94, 95, 96, 97, 98, 99, 100, 101, 102, 103, 104, 105};
Plane Surface(1) = {1};
Line Loop(215) = {1, 214, -107, -213};
Ruled Surface(215) = {215};
Line Loop(219) = {2, 218, -108, -214};
Ruled Surface(219) = {219};
Line Loop(223) = {3, 222, -109, -218};
Ruled Surface(223) = {223};
Line Loop(227) = {4, 226, -110, -222};
Ruled Surface(227) = {227};
Line Loop(231) = {5, 230, -111, -226};
Ruled Surface(231) = {231};
Line Loop(235) = {6, 234, -112, -230};
Ruled Surface(235) = {235};
Line Loop(239) = {7, 238, -113, -234};
Ruled Surface(239) = {239};
Line Loop(243) = {8, 242, -114, -238};
Ruled Surface(243) = {243};
Line Loop(247) = {9, 246, -115, -242};
Ruled Surface(247) = {247};
Line Loop(251) = {10, 250, -116, -246};
Ruled Surface(251) = {251};
Line Loop(255) = {11, 254, -117, -250};
Ruled Surface(255) = {255};
Line Loop(259) = {12, 258, -118, -254};
Ruled Surface(259) = {259};
Line Loop(263) = {13, 262, -119, -258};
Ruled Surface(263) = {263};
Line Loop(267) = {14, 266, -120, -262};
Ruled Surface(267) = {267};
Line Loop(271) = {15, 270, -121, -266};
Ruled Surface(271) = {271};
Line Loop(275) = {16, 274, -122, -270};
Ruled Surface(275) = {275};
Line Loop(279) = {17, 278, -123, -274};
Ruled Surface(279) = {279};
Line Loop(283) = {18, 282, -124, -278};
Ruled Surface(283) = {283};
Line Loop(287) = {19, 286, -125, -282};
Ruled Surface(287) = {287};
Line Loop(291) = {20, 290, -126, -286};
Ruled Surface(291) = {291};
Line Loop(295) = {21, 294, -127, -290};
Ruled Surface(295) = {295};
Line Loop(299) = {22, 298, -128, -294};
Ruled Surface(299) = {299};
Line Loop(303) = {23, 302, -129, -298};
Ruled Surface(303) = {303};
Line Loop(307) = {24, 306, -130, -302};
Ruled Surface(307) = {307};
Line Loop(311) = {25, 310, -131, -306};
Ruled Surface(311) = {311};
Line Loop(315) = {26, 314, -132, -310};
Ruled Surface(315) = {315};
Line Loop(319) = {27, 318, -133, -314};
Ruled Surface(319) = {319};
Line Loop(323) = {28, 322, -134, -318};
Ruled Surface(323) = {323};
Line Loop(327) = {29, 326, -135, -322};
Ruled Surface(327) = {327};
Line Loop(331) = {30, 330, -136, -326};
Ruled Surface(331) = {331};
Line Loop(335) = {31, 334, -137, -330};
Ruled Surface(335) = {335};
Line Loop(339) = {32, 338, -138, -334};
Ruled Surface(339) = {339};
Line Loop(343) = {33, 342, -139, -338};
Ruled Surface(343) = {343};
Line Loop(347) = {34, 346, -140, -342};
Ruled Surface(347) = {347};
Line Loop(351) = {35, 350, -141, -346};
Ruled Surface(351) = {351};
Line Loop(355) = {36, 354, -142, -350};
Ruled Surface(355) = {355};
Line Loop(359) = {37, 358, -143, -354};
Ruled Surface(359) = {359};
Line Loop(363) = {38, 362, -144, -358};
Ruled Surface(363) = {363};
Line Loop(367) = {39, 366, -145, -362};
Ruled Surface(367) = {367};
Line Loop(371) = {40, 370, -146, -366};
Ruled Surface(371) = {371};
Line Loop(375) = {41, 374, -147, -370};
Ruled Surface(375) = {375};
Line Loop(379) = {42, 378, -148, -374};
Ruled Surface(379) = {379};
Line Loop(383) = {43, 382, -149, -378};
Ruled Surface(383) = {383};
Line Loop(387) = {44, 386, -150, -382};
Ruled Surface(387) = {387};
Line Loop(391) = {45, 390, -151, -386};
Ruled Surface(391) = {391};
Line Loop(395) = {46, 394, -152, -390};
Ruled Surface(395) = {395};
Line Loop(399) = {47, 398, -153, -394};
Ruled Surface(399) = {399};
Line Loop(403) = {48, 402, -154, -398};
Ruled Surface(403) = {403};
Line Loop(407) = {49, 406, -155, -402};
Ruled Surface(407) = {407};
Line Loop(411) = {50, 410, -156, -406};
Ruled Surface(411) = {411};
Line Loop(415) = {51, 414, -157, -410};
Ruled Surface(415) = {415};
Line Loop(419) = {52, 418, -158, -414};
Ruled Surface(419) = {419};
Line Loop(423) = {53, 422, -159, -418};
Ruled Surface(423) = {423};
Line Loop(427) = {54, 426, -160, -422};
Ruled Surface(427) = {427};
Line Loop(431) = {55, 430, -161, -426};
Ruled Surface(431) = {431};
Line Loop(435) = {56, 434, -162, -430};
Ruled Surface(435) = {435};
Line Loop(439) = {57, 438, -163, -434};
Ruled Surface(439) = {439};
Line Loop(443) = {58, 442, -164, -438};
Ruled Surface(443) = {443};
Line Loop(447) = {59, 446, -165, -442};
Ruled Surface(447) = {447};
Line Loop(451) = {60, 450, -166, -446};
Ruled Surface(451) = {451};
Line Loop(455) = {61, 454, -167, -450};
Ruled Surface(455) = {455};
Line Loop(459) = {62, 458, -168, -454};
Ruled Surface(459) = {459};
Line Loop(463) = {63, 462, -169, -458};
Ruled Surface(463) = {463};
Line Loop(467) = {64, 466, -170, -462};
Ruled Surface(467) = {467};
Line Loop(471) = {65, 470, -171, -466};
Ruled Surface(471) = {471};
Line Loop(475) = {66, 474, -172, -470};
Ruled Surface(475) = {475};
Line Loop(479) = {67, 478, -173, -474};
Ruled Surface(479) = {479};
Line Loop(483) = {68, 482, -174, -478};
Ruled Surface(483) = {483};
Line Loop(487) = {69, 486, -175, -482};
Ruled Surface(487) = {487};
Line Loop(491) = {70, 490, -176, -486};
Ruled Surface(491) = {491};
Line Loop(495) = {71, 494, -177, -490};
Ruled Surface(495) = {495};
Line Loop(499) = {72, 498, -178, -494};
Ruled Surface(499) = {499};
Line Loop(503) = {73, 502, -179, -498};
Ruled Surface(503) = {503};
Line Loop(507) = {74, 506, -180, -502};
Ruled Surface(507) = {507};
Line Loop(511) = {75, 510, -181, -506};
Ruled Surface(511) = {511};
Line Loop(515) = {76, 514, -182, -510};
Ruled Surface(515) = {515};
Line Loop(519) = {77, 518, -183, -514};
Ruled Surface(519) = {519};
Line Loop(523) = {78, 522, -184, -518};
Ruled Surface(523) = {523};
Line Loop(527) = {79, 526, -185, -522};
Ruled Surface(527) = {527};
Line Loop(531) = {80, 530, -186, -526};
Ruled Surface(531) = {531};
Line Loop(535) = {81, 534, -187, -530};
Ruled Surface(535) = {535};
Line Loop(539) = {82, 538, -188, -534};
Ruled Surface(539) = {539};
Line Loop(543) = {83, 542, -189, -538};
Ruled Surface(543) = {543};
Line Loop(547) = {84, 546, -190, -542};
Ruled Surface(547) = {547};
Line Loop(551) = {85, 550, -191, -546};
Ruled Surface(551) = {551};
Line Loop(555) = {86, 554, -192, -550};
Ruled Surface(555) = {555};
Line Loop(559) = {87, 558, -193, -554};
Ruled Surface(559) = {559};
Line Loop(563) = {88, 562, -194, -558};
Ruled Surface(563) = {563};
Line Loop(567) = {89, 566, -195, -562};
Ruled Surface(567) = {567};
Line Loop(571) = {90, 570, -196, -566};
Ruled Surface(571) = {571};
Line Loop(575) = {91, 574, -197, -570};
Ruled Surface(575) = {575};
Line Loop(579) = {92, 578, -198, -574};
Ruled Surface(579) = {579};
Line Loop(583) = {93, 582, -199, -578};
Ruled Surface(583) = {583};
Line Loop(587) = {94, 586, -200, -582};
Ruled Surface(587) = {587};
Line Loop(591) = {95, 590, -201, -586};
Ruled Surface(591) = {591};
Line Loop(595) = {96, 594, -202, -590};
Ruled Surface(595) = {595};
Line Loop(599) = {97, 598, -203, -594};
Ruled Surface(599) = {599};
Line Loop(603) = {98, 602, -204, -598};
Ruled Surface(603) = {603};
Line Loop(607) = {99, 606, -205, -602};
Ruled Surface(607) = {607};
Line Loop(611) = {100, 610, -206, -606};
Ruled Surface(611) = {611};
Line Loop(615) = {101, 614, -207, -610};
Ruled Surface(615) = {615};
Line Loop(619) = {102, 618, -208, -614};
Ruled Surface(619) = {619};
Line Loop(623) = {103, 622, -209, -618};
Ruled Surface(623) = {623};
Line Loop(627) = {104, 626, -210, -622};
Ruled Surface(627) = {627};
Line Loop(631) = {105, 213, -211, -626};
Ruled Surface(631) = {631};
Line Loop(632) = {107, 108, 109, 110, 111, 112, 113, 114, 115, 116, 117, 118, 119, 120, 121, 122, 123, 124, 125, 126, 127, 128, 129, 130, 131, 132, 133, 134, 135, 136, 137, 138, 139, 140, 141, 142, 143, 144, 145, 146, 147, 148, 149, 150, 151, 152, 153, 154, 155, 156, 157, 158, 159, 160, 161, 162, 163, 164, 165, 166, 167, 168, 169, 170, 171, 172, 173, 174, 175, 176, 177, 178, 179, 180, 181, 182, 183, 184, 185, 186, 187, 188, 189, 190, 191, 192, 193, 194, 195, 196, 197, 198, 199, 200, 201, 202, 203, 204, 205, 206, 207, 208, 209, 210, 211};
Plane Surface(632) = {632};
Surface Loop(1) = {1, 632, 215, 219, 223, 227, 231, 235, 239, 243, 247, 251, 255, 259, 263, 267, 271, 275, 279, 283, 287, 291, 295, 299, 303, 307, 311, 315, 319, 323, 327, 331, 335, 339, 343, 347, 351, 355, 359, 363, 367, 371, 375, 379, 383, 387, 391, 395, 399, 403, 407, 411, 415, 419, 423, 427, 431, 435, 439, 443, 447, 451, 455, 459, 463, 467, 471, 475, 479, 483, 487, 491, 495, 499, 503, 507, 511, 515, 519, 523, 527, 531, 535, 539, 543, 547, 551, 555, 559, 563, 567, 571, 575, 579, 583, 587, 591, 595, 599, 603, 607, 611, 615, 619, 623, 627, 631};
Volume(1) = {1};
Physical Surface(634) = {327, 331, 335, 339, 343, 347, 351, 355, 359, 363};
Physical Surface(635) = {443, 447, 451, 455, 459, 463, 467, 471, 475, 479};
Physical Volume(633) = {1};
