cl__1 = 0.01;
Point(1) = {-0.135667, 0.4739, 0, 0.01};
Point(2) = {-0.13474, 0.474047, 0, 0.01};
Point(3) = {-0.133904, 0.474473, 0, 0.01};
Point(4) = {-0.13324, 0.475137, 0, 0.01};
Point(5) = {-0.132814, 0.475973, 0, 0.01};
Point(6) = {-0.132667, 0.4769, 0, 0.01};
Point(7) = {-0.132667, 0.481499, 0, 0.01};
Point(8) = {-0.094573, 0.481499, 0, 0.01};
Point(9) = {-0.097481, 0.479289, 0, 0.01};
Point(10) = {-0.09813, 0.478611, 0, 0.01};
Point(11) = {-0.098539, 0.477765, 0, 0.01};
Point(12) = {-0.098665, 0.476835, 0, 0.01};
Point(13) = {-0.098499, 0.475912, 0, 0.01};
Point(14) = {-0.098055, 0.475085, 0, 0.01};
Point(15) = {-0.09737700000000001, 0.474436, 0, 0.01};
Point(16) = {-0.09653100000000001, 0.474027, 0, 0.01};
Point(17) = {-0.09560100000000001, 0.473901, 0, 0.01};
Point(18) = {-0.094678, 0.474067, 0, 0.01};
Point(19) = {-0.093851, 0.474511, 0, 0.01};
Point(20) = {-0.083852, 0.482111, 0, 0.01};
Point(21) = {-0.083202, 0.482788, 0, 0.01};
Point(22) = {-0.08279400000000001, 0.483634, 0, 0.01};
Point(23) = {-0.08266800000000001, 0.484564, 0, 0.01};
Point(24) = {-0.08283500000000001, 0.485487, 0, 0.01};
Point(25) = {-0.08327900000000001, 0.486314, 0, 0.01};
Point(26) = {-0.083956, 0.486963, 0, 0.01};
Point(27) = {-0.084802, 0.487372, 0, 0.01};
Point(28) = {-0.08566699999999999, 0.48749, 0, 0.01};
Point(29) = {-0.08566699999999999, 0.487499, 0, 0.01};
Point(30) = {-0.132667, 0.487499, 0, 0.01};
Point(31) = {-0.132667, 0.492099, 0, 0.01};
Point(32) = {-0.132814, 0.493026, 0, 0.01};
Point(33) = {-0.13324, 0.493862, 0, 0.01};
Point(34) = {-0.133904, 0.494526, 0, 0.01};
Point(35) = {-0.13474, 0.494952, 0, 0.01};
Point(36) = {-0.135667, 0.495099, 0, 0.01};
Point(37) = {-0.136594, 0.494952, 0, 0.01};
Point(38) = {-0.13743, 0.494526, 0, 0.01};
Point(39) = {-0.138094, 0.493862, 0, 0.01};
Point(40) = {-0.13852, 0.493026, 0, 0.01};
Point(41) = {-0.138667, 0.492099, 0, 0.01};
Point(42) = {-0.138667, 0.4769, 0, 0.01};
Point(43) = {-0.13852, 0.475973, 0, 0.01};
Point(44) = {-0.138094, 0.475137, 0, 0.01};
Point(45) = {-0.13743, 0.474473, 0, 0.01};
Point(46) = {-0.136594, 0.474047, 0, 0.01};
Point(47) = {-0.135667, 0.4739, 0.00137, 0.01};
Point(48) = {-0.13474, 0.474047, 0.00137, 0.01};
Point(52) = {-0.133904, 0.474473, 0.00137, 0.01};
Point(56) = {-0.13324, 0.475137, 0.00137, 0.01};
Point(60) = {-0.132814, 0.475973, 0.00137, 0.01};
Point(64) = {-0.132667, 0.4769, 0.00137, 0.01};
Point(68) = {-0.132667, 0.481499, 0.00137, 0.01};
Point(72) = {-0.094573, 0.481499, 0.00137, 0.01};
Point(76) = {-0.097481, 0.479289, 0.00137, 0.01};
Point(80) = {-0.09813, 0.478611, 0.00137, 0.01};
Point(84) = {-0.098539, 0.477765, 0.00137, 0.01};
Point(88) = {-0.098665, 0.476835, 0.00137, 0.01};
Point(92) = {-0.098499, 0.475912, 0.00137, 0.01};
Point(96) = {-0.098055, 0.475085, 0.00137, 0.01};
Point(100) = {-0.09737700000000001, 0.474436, 0.00137, 0.01};
Point(104) = {-0.09653100000000001, 0.474027, 0.00137, 0.01};
Point(108) = {-0.09560100000000001, 0.473901, 0.00137, 0.01};
Point(112) = {-0.094678, 0.474067, 0.00137, 0.01};
Point(116) = {-0.093851, 0.474511, 0.00137, 0.01};
Point(120) = {-0.083852, 0.482111, 0.00137, 0.01};
Point(124) = {-0.083202, 0.482788, 0.00137, 0.01};
Point(128) = {-0.08279400000000001, 0.483634, 0.00137, 0.01};
Point(132) = {-0.08266800000000001, 0.484564, 0.00137, 0.01};
Point(136) = {-0.08283500000000001, 0.485487, 0.00137, 0.01};
Point(140) = {-0.08327900000000001, 0.486314, 0.00137, 0.01};
Point(144) = {-0.083956, 0.486963, 0.00137, 0.01};
Point(148) = {-0.084802, 0.487372, 0.00137, 0.01};
Point(152) = {-0.08566699999999999, 0.48749, 0.00137, 0.01};
Point(156) = {-0.08566699999999999, 0.487499, 0.00137, 0.01};
Point(160) = {-0.132667, 0.487499, 0.00137, 0.01};
Point(164) = {-0.132667, 0.492099, 0.00137, 0.01};
Point(168) = {-0.132814, 0.493026, 0.00137, 0.01};
Point(172) = {-0.13324, 0.493862, 0.00137, 0.01};
Point(176) = {-0.133904, 0.494526, 0.00137, 0.01};
Point(180) = {-0.13474, 0.494952, 0.00137, 0.01};
Point(184) = {-0.135667, 0.495099, 0.00137, 0.01};
Point(188) = {-0.136594, 0.494952, 0.00137, 0.01};
Point(192) = {-0.13743, 0.494526, 0.00137, 0.01};
Point(196) = {-0.138094, 0.493862, 0.00137, 0.01};
Point(200) = {-0.13852, 0.493026, 0.00137, 0.01};
Point(204) = {-0.138667, 0.492099, 0.00137, 0.01};
Point(208) = {-0.138667, 0.4769, 0.00137, 0.01};
Point(212) = {-0.13852, 0.475973, 0.00137, 0.01};
Point(216) = {-0.138094, 0.475137, 0.00137, 0.01};
Point(220) = {-0.13743, 0.474473, 0.00137, 0.01};
Point(224) = {-0.136594, 0.474047, 0.00137, 0.01};
Line(1) = {1, 2};
Line(2) = {2, 3};
Line(3) = {3, 4};
Line(4) = {4, 5};
Line(5) = {5, 6};
Line(6) = {6, 7};
Line(7) = {7, 8};
Line(8) = {8, 9};
Line(9) = {9, 10};
Line(10) = {10, 11};
Line(11) = {11, 12};
Line(12) = {12, 13};
Line(13) = {13, 14};
Line(14) = {14, 15};
Line(15) = {15, 16};
Line(16) = {16, 17};
Line(17) = {17, 18};
Line(18) = {18, 19};
Line(19) = {19, 20};
Line(20) = {20, 21};
Line(21) = {21, 22};
Line(22) = {22, 23};
Line(23) = {23, 24};
Line(24) = {24, 25};
Line(25) = {25, 26};
Line(26) = {26, 27};
Line(27) = {27, 28};
Line(28) = {28, 29};
Line(29) = {29, 30};
Line(30) = {30, 31};
Line(31) = {31, 32};
Line(32) = {32, 33};
Line(33) = {33, 34};
Line(34) = {34, 35};
Line(35) = {35, 36};
Line(36) = {36, 37};
Line(37) = {37, 38};
Line(38) = {38, 39};
Line(39) = {39, 40};
Line(40) = {40, 41};
Line(41) = {41, 42};
Line(42) = {42, 43};
Line(43) = {43, 44};
Line(44) = {44, 45};
Line(45) = {45, 46};
Line(46) = {46, 1};
Line(48) = {47, 48};
Line(49) = {48, 52};
Line(50) = {52, 56};
Line(51) = {56, 60};
Line(52) = {60, 64};
Line(53) = {64, 68};
Line(54) = {68, 72};
Line(55) = {72, 76};
Line(56) = {76, 80};
Line(57) = {80, 84};
Line(58) = {84, 88};
Line(59) = {88, 92};
Line(60) = {92, 96};
Line(61) = {96, 100};
Line(62) = {100, 104};
Line(63) = {104, 108};
Line(64) = {108, 112};
Line(65) = {112, 116};
Line(66) = {116, 120};
Line(67) = {120, 124};
Line(68) = {124, 128};
Line(69) = {128, 132};
Line(70) = {132, 136};
Line(71) = {136, 140};
Line(72) = {140, 144};
Line(73) = {144, 148};
Line(74) = {148, 152};
Line(75) = {152, 156};
Line(76) = {156, 160};
Line(77) = {160, 164};
Line(78) = {164, 168};
Line(79) = {168, 172};
Line(80) = {172, 176};
Line(81) = {176, 180};
Line(82) = {180, 184};
Line(83) = {184, 188};
Line(84) = {188, 192};
Line(85) = {192, 196};
Line(86) = {196, 200};
Line(87) = {200, 204};
Line(88) = {204, 208};
Line(89) = {208, 212};
Line(90) = {212, 216};
Line(91) = {216, 220};
Line(92) = {220, 224};
Line(93) = {224, 47};
Line(95) = {1, 47};
Line(96) = {2, 48};
Line(100) = {3, 52};
Line(104) = {4, 56};
Line(108) = {5, 60};
Line(112) = {6, 64};
Line(116) = {7, 68};
Line(120) = {8, 72};
Line(124) = {9, 76};
Line(128) = {10, 80};
Line(132) = {11, 84};
Line(136) = {12, 88};
Line(140) = {13, 92};
Line(144) = {14, 96};
Line(148) = {15, 100};
Line(152) = {16, 104};
Line(156) = {17, 108};
Line(160) = {18, 112};
Line(164) = {19, 116};
Line(168) = {20, 120};
Line(172) = {21, 124};
Line(176) = {22, 128};
Line(180) = {23, 132};
Line(184) = {24, 136};
Line(188) = {25, 140};
Line(192) = {26, 144};
Line(196) = {27, 148};
Line(200) = {28, 152};
Line(204) = {29, 156};
Line(208) = {30, 160};
Line(212) = {31, 164};
Line(216) = {32, 168};
Line(220) = {33, 172};
Line(224) = {34, 176};
Line(228) = {35, 180};
Line(232) = {36, 184};
Line(236) = {37, 188};
Line(240) = {38, 192};
Line(244) = {39, 196};
Line(248) = {40, 200};
Line(252) = {41, 204};
Line(256) = {42, 208};
Line(260) = {43, 212};
Line(264) = {44, 216};
Line(268) = {45, 220};
Line(272) = {46, 224};
Line Loop(1) = {1, 2, 3, 4, 5, 6, 7, 8, 9, 10, 11, 12, 13, 14, 15, 16, 17, 18, 19, 20, 21, 22, 23, 24, 25, 26, 27, 28, 29, 30, 31, 32, 33, 34, 35, 36, 37, 38, 39, 40, 41, 42, 43, 44, 45, 46};
Plane Surface(1) = {1};
Line Loop(97) = {1, 96, -48, -95};
Ruled Surface(97) = {97};
Line Loop(101) = {2, 100, -49, -96};
Ruled Surface(101) = {101};
Line Loop(105) = {3, 104, -50, -100};
Ruled Surface(105) = {105};
Line Loop(109) = {4, 108, -51, -104};
Ruled Surface(109) = {109};
Line Loop(113) = {5, 112, -52, -108};
Ruled Surface(113) = {113};
Line Loop(117) = {6, 116, -53, -112};
Ruled Surface(117) = {117};
Line Loop(121) = {7, 120, -54, -116};
Ruled Surface(121) = {121};
Line Loop(125) = {8, 124, -55, -120};
Ruled Surface(125) = {125};
Line Loop(129) = {9, 128, -56, -124};
Ruled Surface(129) = {129};
Line Loop(133) = {10, 132, -57, -128};
Ruled Surface(133) = {133};
Line Loop(137) = {11, 136, -58, -132};
Ruled Surface(137) = {137};
Line Loop(141) = {12, 140, -59, -136};
Ruled Surface(141) = {141};
Line Loop(145) = {13, 144, -60, -140};
Ruled Surface(145) = {145};
Line Loop(149) = {14, 148, -61, -144};
Ruled Surface(149) = {149};
Line Loop(153) = {15, 152, -62, -148};
Ruled Surface(153) = {153};
Line Loop(157) = {16, 156, -63, -152};
Ruled Surface(157) = {157};
Line Loop(161) = {17, 160, -64, -156};
Ruled Surface(161) = {161};
Line Loop(165) = {18, 164, -65, -160};
Ruled Surface(165) = {165};
Line Loop(169) = {19, 168, -66, -164};
Ruled Surface(169) = {169};
Line Loop(173) = {20, 172, -67, -168};
Ruled Surface(173) = {173};
Line Loop(177) = {21, 176, -68, -172};
Ruled Surface(177) = {177};
Line Loop(181) = {22, 180, -69, -176};
Ruled Surface(181) = {181};
Line Loop(185) = {23, 184, -70, -180};
Ruled Surface(185) = {185};
Line Loop(189) = {24, 188, -71, -184};
Ruled Surface(189) = {189};
Line Loop(193) = {25, 192, -72, -188};
Ruled Surface(193) = {193};
Line Loop(197) = {26, 196, -73, -192};
Ruled Surface(197) = {197};
Line Loop(201) = {27, 200, -74, -196};
Ruled Surface(201) = {201};
Line Loop(205) = {28, 204, -75, -200};
Ruled Surface(205) = {205};
Line Loop(209) = {29, 208, -76, -204};
Ruled Surface(209) = {209};
Line Loop(213) = {30, 212, -77, -208};
Ruled Surface(213) = {213};
Line Loop(217) = {31, 216, -78, -212};
Ruled Surface(217) = {217};
Line Loop(221) = {32, 220, -79, -216};
Ruled Surface(221) = {221};
Line Loop(225) = {33, 224, -80, -220};
Ruled Surface(225) = {225};
Line Loop(229) = {34, 228, -81, -224};
Ruled Surface(229) = {229};
Line Loop(233) = {35, 232, -82, -228};
Ruled Surface(233) = {233};
Line Loop(237) = {36, 236, -83, -232};
Ruled Surface(237) = {237};
Line Loop(241) = {37, 240, -84, -236};
Ruled Surface(241) = {241};
Line Loop(245) = {38, 244, -85, -240};
Ruled Surface(245) = {245};
Line Loop(249) = {39, 248, -86, -244};
Ruled Surface(249) = {249};
Line Loop(253) = {40, 252, -87, -248};
Ruled Surface(253) = {253};
Line Loop(257) = {41, 256, -88, -252};
Ruled Surface(257) = {257};
Line Loop(261) = {42, 260, -89, -256};
Ruled Surface(261) = {261};
Line Loop(265) = {43, 264, -90, -260};
Ruled Surface(265) = {265};
Line Loop(269) = {44, 268, -91, -264};
Ruled Surface(269) = {269};
Line Loop(273) = {45, 272, -92, -268};
Ruled Surface(273) = {273};
Line Loop(277) = {46, 95, -93, -272};
Ruled Surface(277) = {277};
Line Loop(278) = {48, 49, 50, 51, 52, 53, 54, 55, 56, 57, 58, 59, 60, 61, 62, 63, 64, 65, 66, 67, 68, 69, 70, 71, 72, 73, 74, 75, 76, 77, 78, 79, 80, 81, 82, 83, 84, 85, 86, 87, 88, 89, 90, 91, 92, 93};
Plane Surface(278) = {278};
Surface Loop(1) = {1, 278, 97, 101, 105, 109, 113, 117, 121, 125, 129, 133, 137, 141, 145, 149, 153, 157, 161, 165, 169, 173, 177, 181, 185, 189, 193, 197, 201, 205, 209, 213, 217, 221, 225, 229, 233, 237, 241, 245, 249, 253, 257, 261, 265, 269, 273, 277};
Volume(1) = {1};
Physical Surface(280) = {257};
Physical Surface(281) = {169};
Physical Volume(279) = {1};
