lc = 1e-2;
Point(1) = {1.483, 1.362, 0, lc} ;
Point(2) = {1.503, 1.362, 0, lc} ;
Point(3) = {1.503, 1.37539, 0, lc} ;
Point(4) = {1.5153, 1.3877, 0, lc} ;
Point(5) = {1.51524, 1.38776, 0, lc} ;
Point(6) = {1.51607, 1.38859, 0, lc} ;
Point(7) = {1.51713, 1.39068, 0, lc} ;
Point(8) = {1.5175, 1.393, 0, lc} ;
Point(9) = {1.5175, 1.40689, 0, lc} ;
Point(10) = {1.52361, 1.413, 0, lc} ;
Point(11) = {1.526, 1.413, 0, lc} ;
Point(12) = {1.526, 1.4105, 0, lc} ;
Point(13) = {1.546, 1.4105, 0, lc} ;
Point(14) = {1.546, 1.42293, 0, lc} ;
Point(15) = {1.56243, 1.43936, 0, lc} ;
Point(16) = {1.56344, 1.43912, 0, lc} ;
Point(17) = {1.565, 1.439, 0, lc} ;
Point(18) = {1.56656, 1.43912, 0, lc} ;
Point(19) = {1.56809, 1.43949, 0, lc} ;
Point(20) = {1.56954, 1.44009, 0, lc} ;
Point(21) = {1.57088, 1.44091, 0, lc} ;
Point(22) = {1.57207, 1.44193, 0, lc} ;
Point(23) = {1.57309, 1.44312, 0, lc} ;
Point(24) = {1.57391, 1.44446, 0, lc} ;
Point(25) = {1.57451, 1.44591, 0, lc} ;
Point(26) = {1.57488, 1.44744, 0, lc} ;
Point(27) = {1.575, 1.449, 0, lc} ;
Point(28) = {1.57488, 1.45056, 0, lc} ;
Point(29) = {1.57451, 1.45209, 0, lc} ;
Point(30) = {1.57391, 1.45354, 0, lc} ;
Point(31) = {1.57309, 1.45488, 0, lc} ;
Point(32) = {1.57207, 1.45607, 0, lc} ;
Point(33) = {1.57088, 1.45709, 0, lc} ;
Point(34) = {1.56954, 1.45791, 0, lc} ;
Point(35) = {1.56809, 1.45851, 0, lc} ;
Point(36) = {1.56656, 1.45888, 0, lc} ;
Point(37) = {1.565, 1.459, 0, lc} ;
Point(38) = {1.56344, 1.45888, 0, lc} ;
Point(39) = {1.56243, 1.45864, 0, lc} ;
Point(40) = {1.54254, 1.47854, 0, lc} ;
Point(41) = {1.54127, 1.47945, 0, lc} ;
Point(42) = {1.53978, 1.47994, 0, lc} ;
Point(43) = {1.539, 1.47994, 0, lc} ;
Point(44) = {1.539, 1.48, 0, lc} ;
Point(45) = {1.53214, 1.48, 0, lc} ;
Point(46) = {1.523, 1.48914, 0, lc} ;
Point(47) = {1.50886, 1.475, 0, lc} ;
Point(48) = {1.523, 1.46086, 0, lc} ;
Point(49) = {1.53214, 1.47, 0, lc} ;
Point(50) = {1.53693, 1.47, 0, lc} ;
Point(51) = {1.55536, 1.45157, 0, lc} ;
Point(52) = {1.55512, 1.45056, 0, lc} ;
Point(53) = {1.555, 1.449, 0, lc} ;
Point(54) = {1.55512, 1.44744, 0, lc} ;
Point(55) = {1.55536, 1.44643, 0, lc} ;
Point(56) = {1.53943, 1.4305, 0, lc} ;
Point(57) = {1.526, 1.4305, 0, lc} ;
Point(58) = {1.526, 1.428, 0, lc} ;
Point(59) = {1.5205, 1.428, 0, lc} ;
Point(60) = {1.51818, 1.42763, 0, lc} ;
Point(61) = {1.51609, 1.42657, 0, lc} ;
Point(62) = {1.51526, 1.42574, 0, lc} ;
Point(63) = {1.5152, 1.4258, 0, lc} ;
Point(64) = {1.5047, 1.4153, 0, lc} ;
Point(65) = {1.50332, 1.41341, 0, lc} ;
Point(66) = {1.50259, 1.41117, 0, lc} ;
Point(67) = {1.50259, 1.41, 0, lc} ;
Point(68) = {1.5025, 1.41, 0, lc} ;
Point(69) = {1.5025, 1.39611, 0, lc} ;
Point(70) = {1.48839, 1.382, 0, lc} ;
Point(71) = {1.483, 1.382, 0, lc} ;
Line(72) = {1,2} ;
Line(73) = {2,3} ;
Line(74) = {3,4} ;
Line(75) = {4,5} ;
Line(76) = {5,6} ;
Line(77) = {6,7} ;
Line(78) = {7,8} ;
Line(79) = {8,9} ;
Line(80) = {9,10} ;
Line(81) = {10,11} ;
Line(82) = {11,12} ;
Line(83) = {12,13} ;
Line(84) = {13,14} ;
Line(85) = {14,15} ;
Line(86) = {15,16} ;
Line(87) = {16,17} ;
Line(88) = {17,18} ;
Line(89) = {18,19} ;
Line(90) = {19,20} ;
Line(91) = {20,21} ;
Line(92) = {21,22} ;
Line(93) = {22,23} ;
Line(94) = {23,24} ;
Line(95) = {24,25} ;
Line(96) = {25,26} ;
Line(97) = {26,27} ;
Line(98) = {27,28} ;
Line(99) = {28,29} ;
Line(100) = {29,30} ;
Line(101) = {30,31} ;
Line(102) = {31,32} ;
Line(103) = {32,33} ;
Line(104) = {33,34} ;
Line(105) = {34,35} ;
Line(106) = {35,36} ;
Line(107) = {36,37} ;
Line(108) = {37,38} ;
Line(109) = {38,39} ;
Line(110) = {39,40} ;
Line(111) = {40,41} ;
Line(112) = {41,42} ;
Line(113) = {42,43} ;
Line(114) = {43,44} ;
Line(115) = {44,45} ;
Line(116) = {45,46} ;
Line(117) = {46,47} ;
Line(118) = {47,48} ;
Line(119) = {48,49} ;
Line(120) = {49,50} ;
Line(121) = {50,51} ;
Line(122) = {51,52} ;
Line(123) = {52,53} ;
Line(124) = {53,54} ;
Line(125) = {54,55} ;
Line(126) = {55,56} ;
Line(127) = {56,57} ;
Line(128) = {57,58} ;
Line(129) = {58,59} ;
Line(130) = {59,60} ;
Line(131) = {60,61} ;
Line(132) = {61,62} ;
Line(133) = {62,63} ;
Line(134) = {63,64} ;
Line(135) = {64,65} ;
Line(136) = {65,66} ;
Line(137) = {66,67} ;
Line(138) = {67,68} ;
Line(139) = {68,69} ;
Line(140) = {69,70} ;
Line(141) = {70,71} ;
Line(142) = {71,1} ;
Line Loop(143) = {72,73,74,75,76,77,78,79,80,81,82,83,84,85,86,87,88,89,90,91,92,93,94,95,96,97,98,99,100,101,102,103,104,105,106,107,108,109,110,111,112,113,114,115,116,117,118,119,120,121,122,123,124,125,126,127,128,129,130,131,132,133,134,135,136,137,138,139,140,141,142} ;
Plane Surface(144) = {143} ;
Extrude{0,0,0.00137}{ Surface{144}; }
Point(1481) = {1.565, 1.439, 0.01137, lc} ;
Point(1482) = {1.56656, 1.43912, 0.01137, lc} ;
Point(1483) = {1.56809, 1.43949, 0.01137, lc} ;
Point(1484) = {1.56954, 1.44009, 0.01137, lc} ;
Point(1485) = {1.57088, 1.44091, 0.01137, lc} ;
Point(1486) = {1.57207, 1.44193, 0.01137, lc} ;
Point(1487) = {1.57309, 1.44312, 0.01137, lc} ;
Point(1488) = {1.57391, 1.44446, 0.01137, lc} ;
Point(1489) = {1.57451, 1.44591, 0.01137, lc} ;
Point(1490) = {1.57488, 1.44744, 0.01137, lc} ;
Point(1491) = {1.575, 1.449, 0.01137, lc} ;
Point(1492) = {1.57488, 1.45056, 0.01137, lc} ;
Point(1493) = {1.57451, 1.45209, 0.01137, lc} ;
Point(1494) = {1.57391, 1.45354, 0.01137, lc} ;
Point(1495) = {1.57309, 1.45488, 0.01137, lc} ;
Point(1496) = {1.57207, 1.45607, 0.01137, lc} ;
Point(1497) = {1.57088, 1.45709, 0.01137, lc} ;
Point(1498) = {1.56954, 1.45791, 0.01137, lc} ;
Point(1499) = {1.56809, 1.45851, 0.01137, lc} ;
Point(1500) = {1.56656, 1.45888, 0.01137, lc} ;
Point(1501) = {1.565, 1.459, 0.01137, lc} ;
Point(1502) = {1.56344, 1.45888, 0.01137, lc} ;
Point(1503) = {1.56191, 1.45851, 0.01137, lc} ;
Point(1504) = {1.56046, 1.45791, 0.01137, lc} ;
Point(1505) = {1.55912, 1.45709, 0.01137, lc} ;
Point(1506) = {1.55793, 1.45607, 0.01137, lc} ;
Point(1507) = {1.55691, 1.45488, 0.01137, lc} ;
Point(1508) = {1.55609, 1.45354, 0.01137, lc} ;
Point(1509) = {1.55549, 1.45209, 0.01137, lc} ;
Point(1510) = {1.55512, 1.45056, 0.01137, lc} ;
Point(1511) = {1.555, 1.449, 0.01137, lc} ;
Point(1512) = {1.55512, 1.44744, 0.01137, lc} ;
Point(1513) = {1.55549, 1.44591, 0.01137, lc} ;
Point(1514) = {1.55609, 1.44446, 0.01137, lc} ;
Point(1515) = {1.55691, 1.44312, 0.01137, lc} ;
Point(1516) = {1.55793, 1.44193, 0.01137, lc} ;
Point(1517) = {1.55912, 1.44091, 0.01137, lc} ;
Point(1518) = {1.56046, 1.44009, 0.01137, lc} ;
Point(1519) = {1.56191, 1.43949, 0.01137, lc} ;
Point(1520) = {1.56344, 1.43912, 0.01137, lc} ;
Line(1521) = {1481,1482} ;
Line(1522) = {1482,1483} ;
Line(1523) = {1483,1484} ;
Line(1524) = {1484,1485} ;
Line(1525) = {1485,1486} ;
Line(1526) = {1486,1487} ;
Line(1527) = {1487,1488} ;
Line(1528) = {1488,1489} ;
Line(1529) = {1489,1490} ;
Line(1530) = {1490,1491} ;
Line(1531) = {1491,1492} ;
Line(1532) = {1492,1493} ;
Line(1533) = {1493,1494} ;
Line(1534) = {1494,1495} ;
Line(1535) = {1495,1496} ;
Line(1536) = {1496,1497} ;
Line(1537) = {1497,1498} ;
Line(1538) = {1498,1499} ;
Line(1539) = {1499,1500} ;
Line(1540) = {1500,1501} ;
Line(1541) = {1501,1502} ;
Line(1542) = {1502,1503} ;
Line(1543) = {1503,1504} ;
Line(1544) = {1504,1505} ;
Line(1545) = {1505,1506} ;
Line(1546) = {1506,1507} ;
Line(1547) = {1507,1508} ;
Line(1548) = {1508,1509} ;
Line(1549) = {1509,1510} ;
Line(1550) = {1510,1511} ;
Line(1551) = {1511,1512} ;
Line(1552) = {1512,1513} ;
Line(1553) = {1513,1514} ;
Line(1554) = {1514,1515} ;
Line(1555) = {1515,1516} ;
Line(1556) = {1516,1517} ;
Line(1557) = {1517,1518} ;
Line(1558) = {1518,1519} ;
Line(1559) = {1519,1520} ;
Line(1560) = {1520,1481} ;
Line Loop(1561) = {1521,1522,1523,1524,1525,1526,1527,1528,1529,1530,1531,1532,1533,1534,1535,1536,1537,1538,1539,1540,1541,1542,1543,1544,1545,1546,1547,1548,1549,1550,1551,1552,1553,1554,1555,1556,1557,1558,1559,1560} ;
Plane Surface(1562) = {1561} ;
Extrude{0,0,0.00137}{ Surface{1562}; }
Point(2403) = {1.565, 1.439, 0.02274, lc} ;
Point(2404) = {1.56656, 1.43912, 0.02274, lc} ;
Point(2405) = {1.56809, 1.43949, 0.02274, lc} ;
Point(2406) = {1.56954, 1.44009, 0.02274, lc} ;
Point(2407) = {1.57088, 1.44091, 0.02274, lc} ;
Point(2408) = {1.57207, 1.44193, 0.02274, lc} ;
Point(2409) = {1.57309, 1.44312, 0.02274, lc} ;
Point(2410) = {1.57391, 1.44446, 0.02274, lc} ;
Point(2411) = {1.57451, 1.44591, 0.02274, lc} ;
Point(2412) = {1.57488, 1.44744, 0.02274, lc} ;
Point(2413) = {1.575, 1.449, 0.02274, lc} ;
Point(2414) = {1.57488, 1.45056, 0.02274, lc} ;
Point(2415) = {1.57451, 1.45209, 0.02274, lc} ;
Point(2416) = {1.57391, 1.45354, 0.02274, lc} ;
Point(2417) = {1.57309, 1.45488, 0.02274, lc} ;
Point(2418) = {1.57207, 1.45607, 0.02274, lc} ;
Point(2419) = {1.57088, 1.45709, 0.02274, lc} ;
Point(2420) = {1.56954, 1.45791, 0.02274, lc} ;
Point(2421) = {1.56809, 1.45851, 0.02274, lc} ;
Point(2422) = {1.56656, 1.45888, 0.02274, lc} ;
Point(2423) = {1.565, 1.459, 0.02274, lc} ;
Point(2424) = {1.56344, 1.45888, 0.02274, lc} ;
Point(2425) = {1.56191, 1.45851, 0.02274, lc} ;
Point(2426) = {1.56046, 1.45791, 0.02274, lc} ;
Point(2427) = {1.55912, 1.45709, 0.02274, lc} ;
Point(2428) = {1.55793, 1.45607, 0.02274, lc} ;
Point(2429) = {1.55691, 1.45488, 0.02274, lc} ;
Point(2430) = {1.55609, 1.45354, 0.02274, lc} ;
Point(2431) = {1.55549, 1.45209, 0.02274, lc} ;
Point(2432) = {1.55512, 1.45056, 0.02274, lc} ;
Point(2433) = {1.555, 1.449, 0.02274, lc} ;
Point(2434) = {1.55512, 1.44744, 0.02274, lc} ;
Point(2435) = {1.55549, 1.44591, 0.02274, lc} ;
Point(2436) = {1.55609, 1.44446, 0.02274, lc} ;
Point(2437) = {1.55691, 1.44312, 0.02274, lc} ;
Point(2438) = {1.55793, 1.44193, 0.02274, lc} ;
Point(2439) = {1.55912, 1.44091, 0.02274, lc} ;
Point(2440) = {1.56046, 1.44009, 0.02274, lc} ;
Point(2441) = {1.56191, 1.43949, 0.02274, lc} ;
Point(2442) = {1.56344, 1.43912, 0.02274, lc} ;
Line(2443) = {2403,2404} ;
Line(2444) = {2404,2405} ;
Line(2445) = {2405,2406} ;
Line(2446) = {2406,2407} ;
Line(2447) = {2407,2408} ;
Line(2448) = {2408,2409} ;
Line(2449) = {2409,2410} ;
Line(2450) = {2410,2411} ;
Line(2451) = {2411,2412} ;
Line(2452) = {2412,2413} ;
Line(2453) = {2413,2414} ;
Line(2454) = {2414,2415} ;
Line(2455) = {2415,2416} ;
Line(2456) = {2416,2417} ;
Line(2457) = {2417,2418} ;
Line(2458) = {2418,2419} ;
Line(2459) = {2419,2420} ;
Line(2460) = {2420,2421} ;
Line(2461) = {2421,2422} ;
Line(2462) = {2422,2423} ;
Line(2463) = {2423,2424} ;
Line(2464) = {2424,2425} ;
Line(2465) = {2425,2426} ;
Line(2466) = {2426,2427} ;
Line(2467) = {2427,2428} ;
Line(2468) = {2428,2429} ;
Line(2469) = {2429,2430} ;
Line(2470) = {2430,2431} ;
Line(2471) = {2431,2432} ;
Line(2472) = {2432,2433} ;
Line(2473) = {2433,2434} ;
Line(2474) = {2434,2435} ;
Line(2475) = {2435,2436} ;
Line(2476) = {2436,2437} ;
Line(2477) = {2437,2438} ;
Line(2478) = {2438,2439} ;
Line(2479) = {2439,2440} ;
Line(2480) = {2440,2441} ;
Line(2481) = {2441,2442} ;
Line(2482) = {2442,2403} ;
Line Loop(2483) = {2443,2444,2445,2446,2447,2448,2449,2450,2451,2452,2453,2454,2455,2456,2457,2458,2459,2460,2461,2462,2463,2464,2465,2466,2467,2468,2469,2470,2471,2472,2473,2474,2475,2476,2477,2478,2479,2480,2481,2482} ;
Plane Surface(2484) = {2483} ;
Extrude{0,0,0.00137}{ Surface{2484}; }
Point(3325) = {1.565, 1.439, 0.03411, lc} ;
Point(3326) = {1.56656, 1.43912, 0.03411, lc} ;
Point(3327) = {1.56809, 1.43949, 0.03411, lc} ;
Point(3328) = {1.56954, 1.44009, 0.03411, lc} ;
Point(3329) = {1.57088, 1.44091, 0.03411, lc} ;
Point(3330) = {1.57207, 1.44193, 0.03411, lc} ;
Point(3331) = {1.57309, 1.44312, 0.03411, lc} ;
Point(3332) = {1.57391, 1.44446, 0.03411, lc} ;
Point(3333) = {1.57451, 1.44591, 0.03411, lc} ;
Point(3334) = {1.57488, 1.44744, 0.03411, lc} ;
Point(3335) = {1.575, 1.449, 0.03411, lc} ;
Point(3336) = {1.57488, 1.45056, 0.03411, lc} ;
Point(3337) = {1.57451, 1.45209, 0.03411, lc} ;
Point(3338) = {1.57391, 1.45354, 0.03411, lc} ;
Point(3339) = {1.57309, 1.45488, 0.03411, lc} ;
Point(3340) = {1.57207, 1.45607, 0.03411, lc} ;
Point(3341) = {1.57088, 1.45709, 0.03411, lc} ;
Point(3342) = {1.56954, 1.45791, 0.03411, lc} ;
Point(3343) = {1.56809, 1.45851, 0.03411, lc} ;
Point(3344) = {1.56656, 1.45888, 0.03411, lc} ;
Point(3345) = {1.565, 1.459, 0.03411, lc} ;
Point(3346) = {1.56344, 1.45888, 0.03411, lc} ;
Point(3347) = {1.56191, 1.45851, 0.03411, lc} ;
Point(3348) = {1.56046, 1.45791, 0.03411, lc} ;
Point(3349) = {1.55912, 1.45709, 0.03411, lc} ;
Point(3350) = {1.55793, 1.45607, 0.03411, lc} ;
Point(3351) = {1.55691, 1.45488, 0.03411, lc} ;
Point(3352) = {1.55609, 1.45354, 0.03411, lc} ;
Point(3353) = {1.55549, 1.45209, 0.03411, lc} ;
Point(3354) = {1.55512, 1.45056, 0.03411, lc} ;
Point(3355) = {1.555, 1.449, 0.03411, lc} ;
Point(3356) = {1.55512, 1.44744, 0.03411, lc} ;
Point(3357) = {1.55549, 1.44591, 0.03411, lc} ;
Point(3358) = {1.55609, 1.44446, 0.03411, lc} ;
Point(3359) = {1.55691, 1.44312, 0.03411, lc} ;
Point(3360) = {1.55793, 1.44193, 0.03411, lc} ;
Point(3361) = {1.55912, 1.44091, 0.03411, lc} ;
Point(3362) = {1.56046, 1.44009, 0.03411, lc} ;
Point(3363) = {1.56191, 1.43949, 0.03411, lc} ;
Point(3364) = {1.56344, 1.43912, 0.03411, lc} ;
Line(3365) = {3325,3326} ;
Line(3366) = {3326,3327} ;
Line(3367) = {3327,3328} ;
Line(3368) = {3328,3329} ;
Line(3369) = {3329,3330} ;
Line(3370) = {3330,3331} ;
Line(3371) = {3331,3332} ;
Line(3372) = {3332,3333} ;
Line(3373) = {3333,3334} ;
Line(3374) = {3334,3335} ;
Line(3375) = {3335,3336} ;
Line(3376) = {3336,3337} ;
Line(3377) = {3337,3338} ;
Line(3378) = {3338,3339} ;
Line(3379) = {3339,3340} ;
Line(3380) = {3340,3341} ;
Line(3381) = {3341,3342} ;
Line(3382) = {3342,3343} ;
Line(3383) = {3343,3344} ;
Line(3384) = {3344,3345} ;
Line(3385) = {3345,3346} ;
Line(3386) = {3346,3347} ;
Line(3387) = {3347,3348} ;
Line(3388) = {3348,3349} ;
Line(3389) = {3349,3350} ;
Line(3390) = {3350,3351} ;
Line(3391) = {3351,3352} ;
Line(3392) = {3352,3353} ;
Line(3393) = {3353,3354} ;
Line(3394) = {3354,3355} ;
Line(3395) = {3355,3356} ;
Line(3396) = {3356,3357} ;
Line(3397) = {3357,3358} ;
Line(3398) = {3358,3359} ;
Line(3399) = {3359,3360} ;
Line(3400) = {3360,3361} ;
Line(3401) = {3361,3362} ;
Line(3402) = {3362,3363} ;
Line(3403) = {3363,3364} ;
Line(3404) = {3364,3325} ;
Line Loop(3405) = {3365,3366,3367,3368,3369,3370,3371,3372,3373,3374,3375,3376,3377,3378,3379,3380,3381,3382,3383,3384,3385,3386,3387,3388,3389,3390,3391,3392,3393,3394,3395,3396,3397,3398,3399,3400,3401,3402,3403,3404} ;
Plane Surface(3406) = {3405} ;
Extrude{0,0,0.00137}{ Surface{3406}; }
Point(4247) = {1.565, 1.439, 0.08548, lc} ;
Point(4248) = {1.56656, 1.43912, 0.08548, lc} ;
Point(4249) = {1.56809, 1.43949, 0.08548, lc} ;
Point(4250) = {1.56954, 1.44009, 0.08548, lc} ;
Point(4251) = {1.57088, 1.44091, 0.08548, lc} ;
Point(4252) = {1.57207, 1.44193, 0.08548, lc} ;
Point(4253) = {1.57309, 1.44312, 0.08548, lc} ;
Point(4254) = {1.57391, 1.44446, 0.08548, lc} ;
Point(4255) = {1.57451, 1.44591, 0.08548, lc} ;
Point(4256) = {1.57488, 1.44744, 0.08548, lc} ;
Point(4257) = {1.575, 1.449, 0.08548, lc} ;
Point(4258) = {1.57488, 1.45056, 0.08548, lc} ;
Point(4259) = {1.57451, 1.45209, 0.08548, lc} ;
Point(4260) = {1.57391, 1.45354, 0.08548, lc} ;
Point(4261) = {1.57309, 1.45488, 0.08548, lc} ;
Point(4262) = {1.57207, 1.45607, 0.08548, lc} ;
Point(4263) = {1.57088, 1.45709, 0.08548, lc} ;
Point(4264) = {1.56954, 1.45791, 0.08548, lc} ;
Point(4265) = {1.56809, 1.45851, 0.08548, lc} ;
Point(4266) = {1.56656, 1.45888, 0.08548, lc} ;
Point(4267) = {1.565, 1.459, 0.08548, lc} ;
Point(4268) = {1.56344, 1.45888, 0.08548, lc} ;
Point(4269) = {1.56191, 1.45851, 0.08548, lc} ;
Point(4270) = {1.56046, 1.45791, 0.08548, lc} ;
Point(4271) = {1.55912, 1.45709, 0.08548, lc} ;
Point(4272) = {1.55793, 1.45607, 0.08548, lc} ;
Point(4273) = {1.55691, 1.45488, 0.08548, lc} ;
Point(4274) = {1.55609, 1.45354, 0.08548, lc} ;
Point(4275) = {1.55549, 1.45209, 0.08548, lc} ;
Point(4276) = {1.55512, 1.45056, 0.08548, lc} ;
Point(4277) = {1.555, 1.449, 0.08548, lc} ;
Point(4278) = {1.55512, 1.44744, 0.08548, lc} ;
Point(4279) = {1.55549, 1.44591, 0.08548, lc} ;
Point(4280) = {1.55609, 1.44446, 0.08548, lc} ;
Point(4281) = {1.55691, 1.44312, 0.08548, lc} ;
Point(4282) = {1.55793, 1.44193, 0.08548, lc} ;
Point(4283) = {1.55912, 1.44091, 0.08548, lc} ;
Point(4284) = {1.56046, 1.44009, 0.08548, lc} ;
Point(4285) = {1.56191, 1.43949, 0.08548, lc} ;
Point(4286) = {1.56344, 1.43912, 0.08548, lc} ;
Line(4287) = {4247,4248} ;
Line(4288) = {4248,4249} ;
Line(4289) = {4249,4250} ;
Line(4290) = {4250,4251} ;
Line(4291) = {4251,4252} ;
Line(4292) = {4252,4253} ;
Line(4293) = {4253,4254} ;
Line(4294) = {4254,4255} ;
Line(4295) = {4255,4256} ;
Line(4296) = {4256,4257} ;
Line(4297) = {4257,4258} ;
Line(4298) = {4258,4259} ;
Line(4299) = {4259,4260} ;
Line(4300) = {4260,4261} ;
Line(4301) = {4261,4262} ;
Line(4302) = {4262,4263} ;
Line(4303) = {4263,4264} ;
Line(4304) = {4264,4265} ;
Line(4305) = {4265,4266} ;
Line(4306) = {4266,4267} ;
Line(4307) = {4267,4268} ;
Line(4308) = {4268,4269} ;
Line(4309) = {4269,4270} ;
Line(4310) = {4270,4271} ;
Line(4311) = {4271,4272} ;
Line(4312) = {4272,4273} ;
Line(4313) = {4273,4274} ;
Line(4314) = {4274,4275} ;
Line(4315) = {4275,4276} ;
Line(4316) = {4276,4277} ;
Line(4317) = {4277,4278} ;
Line(4318) = {4278,4279} ;
Line(4319) = {4279,4280} ;
Line(4320) = {4280,4281} ;
Line(4321) = {4281,4282} ;
Line(4322) = {4282,4283} ;
Line(4323) = {4283,4284} ;
Line(4324) = {4284,4285} ;
Line(4325) = {4285,4286} ;
Line(4326) = {4286,4247} ;
Line Loop(4327) = {4287,4288,4289,4290,4291,4292,4293,4294,4295,4296,4297,4298,4299,4300,4301,4302,4303,4304,4305,4306,4307,4308,4309,4310,4311,4312,4313,4314,4315,4316,4317,4318,4319,4320,4321,4322,4323,4324,4325,4326} ;
Plane Surface(4328) = {4327} ;
Extrude{0,0,0.01}{ Surface{4328}; }
Point(5169) = {1.565, 1.439, 0.10548, lc} ;
Point(5170) = {1.56656, 1.43912, 0.10548, lc} ;
Point(5171) = {1.56809, 1.43949, 0.10548, lc} ;
Point(5172) = {1.56954, 1.44009, 0.10548, lc} ;
Point(5173) = {1.57088, 1.44091, 0.10548, lc} ;
Point(5174) = {1.57207, 1.44193, 0.10548, lc} ;
Point(5175) = {1.57309, 1.44312, 0.10548, lc} ;
Point(5176) = {1.57391, 1.44446, 0.10548, lc} ;
Point(5177) = {1.57451, 1.44591, 0.10548, lc} ;
Point(5178) = {1.57488, 1.44744, 0.10548, lc} ;
Point(5179) = {1.575, 1.449, 0.10548, lc} ;
Point(5180) = {1.57488, 1.45056, 0.10548, lc} ;
Point(5181) = {1.57464, 1.45157, 0.10548, lc} ;
Point(5182) = {1.58221, 1.45914, 0.10548, lc} ;
Point(5183) = {1.58285, 1.45929, 0.10548, lc} ;
Point(5184) = {1.58372, 1.45965, 0.10548, lc} ;
Point(5185) = {1.58453, 1.46015, 0.10548, lc} ;
Point(5186) = {1.58524, 1.46076, 0.10548, lc} ;
Point(5187) = {1.58585, 1.46147, 0.10548, lc} ;
Point(5188) = {1.58635, 1.46228, 0.10548, lc} ;
Point(5189) = {1.58671, 1.46315, 0.10548, lc} ;
Point(5190) = {1.58693, 1.46406, 0.10548, lc} ;
Point(5191) = {1.587, 1.465, 0.10548, lc} ;
Point(5192) = {1.58693, 1.46594, 0.10548, lc} ;
Point(5193) = {1.58671, 1.46685, 0.10548, lc} ;
Point(5194) = {1.58635, 1.46772, 0.10548, lc} ;
Point(5195) = {1.58585, 1.46853, 0.10548, lc} ;
Point(5196) = {1.58524, 1.46924, 0.10548, lc} ;
Point(5197) = {1.58453, 1.46985, 0.10548, lc} ;
Point(5198) = {1.58372, 1.47035, 0.10548, lc} ;
Point(5199) = {1.58285, 1.47071, 0.10548, lc} ;
Point(5200) = {1.58194, 1.47093, 0.10548, lc} ;
Point(5201) = {1.581, 1.471, 0.10548, lc} ;
Point(5202) = {1.58006, 1.47093, 0.10548, lc} ;
Point(5203) = {1.57915, 1.47071, 0.10548, lc} ;
Point(5204) = {1.57828, 1.47035, 0.10548, lc} ;
Point(5205) = {1.57747, 1.46985, 0.10548, lc} ;
Point(5206) = {1.57676, 1.46924, 0.10548, lc} ;
Point(5207) = {1.57615, 1.46853, 0.10548, lc} ;
Point(5208) = {1.57565, 1.46772, 0.10548, lc} ;
Point(5209) = {1.57529, 1.46685, 0.10548, lc} ;
Point(5210) = {1.57514, 1.46621, 0.10548, lc} ;
Point(5211) = {1.56757, 1.45864, 0.10548, lc} ;
Point(5212) = {1.56656, 1.45888, 0.10548, lc} ;
Point(5213) = {1.565, 1.459, 0.10548, lc} ;
Point(5214) = {1.56344, 1.45888, 0.10548, lc} ;
Point(5215) = {1.56243, 1.45864, 0.10548, lc} ;
Point(5216) = {1.55486, 1.46621, 0.10548, lc} ;
Point(5217) = {1.55471, 1.46685, 0.10548, lc} ;
Point(5218) = {1.55435, 1.46772, 0.10548, lc} ;
Point(5219) = {1.55385, 1.46853, 0.10548, lc} ;
Point(5220) = {1.55324, 1.46924, 0.10548, lc} ;
Point(5221) = {1.55253, 1.46985, 0.10548, lc} ;
Point(5222) = {1.55172, 1.47035, 0.10548, lc} ;
Point(5223) = {1.55085, 1.47071, 0.10548, lc} ;
Point(5224) = {1.54994, 1.47093, 0.10548, lc} ;
Point(5225) = {1.549, 1.471, 0.10548, lc} ;
Point(5226) = {1.54806, 1.47093, 0.10548, lc} ;
Point(5227) = {1.54715, 1.47071, 0.10548, lc} ;
Point(5228) = {1.54628, 1.47035, 0.10548, lc} ;
Point(5229) = {1.54547, 1.46985, 0.10548, lc} ;
Point(5230) = {1.54476, 1.46924, 0.10548, lc} ;
Point(5231) = {1.54415, 1.46853, 0.10548, lc} ;
Point(5232) = {1.54365, 1.46772, 0.10548, lc} ;
Point(5233) = {1.54329, 1.46685, 0.10548, lc} ;
Point(5234) = {1.54307, 1.46594, 0.10548, lc} ;
Point(5235) = {1.543, 1.465, 0.10548, lc} ;
Point(5236) = {1.54307, 1.46406, 0.10548, lc} ;
Point(5237) = {1.54329, 1.46315, 0.10548, lc} ;
Point(5238) = {1.54365, 1.46228, 0.10548, lc} ;
Point(5239) = {1.54415, 1.46147, 0.10548, lc} ;
Point(5240) = {1.54476, 1.46076, 0.10548, lc} ;
Point(5241) = {1.54547, 1.46015, 0.10548, lc} ;
Point(5242) = {1.54628, 1.45965, 0.10548, lc} ;
Point(5243) = {1.54715, 1.45929, 0.10548, lc} ;
Point(5244) = {1.54779, 1.45914, 0.10548, lc} ;
Point(5245) = {1.55536, 1.45157, 0.10548, lc} ;
Point(5246) = {1.55512, 1.45056, 0.10548, lc} ;
Point(5247) = {1.555, 1.449, 0.10548, lc} ;
Point(5248) = {1.55512, 1.44744, 0.10548, lc} ;
Point(5249) = {1.55549, 1.44591, 0.10548, lc} ;
Point(5250) = {1.55609, 1.44446, 0.10548, lc} ;
Point(5251) = {1.55691, 1.44312, 0.10548, lc} ;
Point(5252) = {1.55793, 1.44193, 0.10548, lc} ;
Point(5253) = {1.55912, 1.44091, 0.10548, lc} ;
Point(5254) = {1.56046, 1.44009, 0.10548, lc} ;
Point(5255) = {1.56191, 1.43949, 0.10548, lc} ;
Point(5256) = {1.56344, 1.43912, 0.10548, lc} ;
Line(5257) = {5169,5170} ;
Line(5258) = {5170,5171} ;
Line(5259) = {5171,5172} ;
Line(5260) = {5172,5173} ;
Line(5261) = {5173,5174} ;
Line(5262) = {5174,5175} ;
Line(5263) = {5175,5176} ;
Line(5264) = {5176,5177} ;
Line(5265) = {5177,5178} ;
Line(5266) = {5178,5179} ;
Line(5267) = {5179,5180} ;
Line(5268) = {5180,5181} ;
Line(5269) = {5181,5182} ;
Line(5270) = {5182,5183} ;
Line(5271) = {5183,5184} ;
Line(5272) = {5184,5185} ;
Line(5273) = {5185,5186} ;
Line(5274) = {5186,5187} ;
Line(5275) = {5187,5188} ;
Line(5276) = {5188,5189} ;
Line(5277) = {5189,5190} ;
Line(5278) = {5190,5191} ;
Line(5279) = {5191,5192} ;
Line(5280) = {5192,5193} ;
Line(5281) = {5193,5194} ;
Line(5282) = {5194,5195} ;
Line(5283) = {5195,5196} ;
Line(5284) = {5196,5197} ;
Line(5285) = {5197,5198} ;
Line(5286) = {5198,5199} ;
Line(5287) = {5199,5200} ;
Line(5288) = {5200,5201} ;
Line(5289) = {5201,5202} ;
Line(5290) = {5202,5203} ;
Line(5291) = {5203,5204} ;
Line(5292) = {5204,5205} ;
Line(5293) = {5205,5206} ;
Line(5294) = {5206,5207} ;
Line(5295) = {5207,5208} ;
Line(5296) = {5208,5209} ;
Line(5297) = {5209,5210} ;
Line(5298) = {5210,5211} ;
Line(5299) = {5211,5212} ;
Line(5300) = {5212,5213} ;
Line(5301) = {5213,5214} ;
Line(5302) = {5214,5215} ;
Line(5303) = {5215,5216} ;
Line(5304) = {5216,5217} ;
Line(5305) = {5217,5218} ;
Line(5306) = {5218,5219} ;
Line(5307) = {5219,5220} ;
Line(5308) = {5220,5221} ;
Line(5309) = {5221,5222} ;
Line(5310) = {5222,5223} ;
Line(5311) = {5223,5224} ;
Line(5312) = {5224,5225} ;
Line(5313) = {5225,5226} ;
Line(5314) = {5226,5227} ;
Line(5315) = {5227,5228} ;
Line(5316) = {5228,5229} ;
Line(5317) = {5229,5230} ;
Line(5318) = {5230,5231} ;
Line(5319) = {5231,5232} ;
Line(5320) = {5232,5233} ;
Line(5321) = {5233,5234} ;
Line(5322) = {5234,5235} ;
Line(5323) = {5235,5236} ;
Line(5324) = {5236,5237} ;
Line(5325) = {5237,5238} ;
Line(5326) = {5238,5239} ;
Line(5327) = {5239,5240} ;
Line(5328) = {5240,5241} ;
Line(5329) = {5241,5242} ;
Line(5330) = {5242,5243} ;
Line(5331) = {5243,5244} ;
Line(5332) = {5244,5245} ;
Line(5333) = {5245,5246} ;
Line(5334) = {5246,5247} ;
Line(5335) = {5247,5248} ;
Line(5336) = {5248,5249} ;
Line(5337) = {5249,5250} ;
Line(5338) = {5250,5251} ;
Line(5339) = {5251,5252} ;
Line(5340) = {5252,5253} ;
Line(5341) = {5253,5254} ;
Line(5342) = {5254,5255} ;
Line(5343) = {5255,5256} ;
Line(5344) = {5256,5169} ;
Line Loop(5345) = {5257,5258,5259,5260,5261,5262,5263,5264,5265,5266,5267,5268,5269,5270,5271,5272,5273,5274,5275,5276,5277,5278,5279,5280,5281,5282,5283,5284,5285,5286,5287,5288,5289,5290,5291,5292,5293,5294,5295,5296,5297,5298,5299,5300,5301,5302,5303,5304,5305,5306,5307,5308,5309,5310,5311,5312,5313,5314,5315,5316,5317,5318,5319,5320,5321,5322,5323,5324,5325,5326,5327,5328,5329,5330,5331,5332,5333,5334,5335,5336,5337,5338,5339,5340,5341,5342,5343,5344} ;
Plane Surface(5346) = {5345} ;
Extrude{0,0,0.00137}{ Surface{5346}; }
Point(6955) = {1.565,1.449,0.10548, lc};
Point(6956) = {1.565,1.459,0.10548, lc};
Point(6957) = {1.575,1.449,0.10548, lc};
Point(6958) = {1.565,1.439,0.10548, lc};
Point(6959) = {1.555,1.449,0.10548, lc};
Circle(6960) = {6956, 6955,6957};
Circle(6961) = {6957, 6955,6958};
Circle(6962) = {6958, 6955,6959};
Circle(6963) = {6959, 6955,6956};
Line Loop(6964) = {6960,6961,6962,6963};
Plane Surface(6965) = {6964};
Extrude {0,0,0.00137} { 
  Surface{6965};
}
Point(7234) = {1.565,1.449,0.09548, lc};
Point(7235) = {1.565,1.454,0.09548, lc};
Point(7236) = {1.57,1.449,0.09548, lc};
Point(7237) = {1.565,1.444,0.09548, lc};
Point(7238) = {1.56,1.449,0.09548, lc};
Circle(7239) = {7235, 7234,7236};
Circle(7240) = {7236, 7234,7237};
Circle(7241) = {7237, 7234,7238};
Circle(7242) = {7238, 7234,7235};
Line Loop(7243) = {7239,7240,7241,7242};
Plane Surface(7244) = {7243};
Extrude {0,0,0.01} { 
  Surface{7244};
}
Point(7513) = {1.565,1.449,0.08548, lc};
Point(7514) = {1.565,1.459,0.08548, lc};
Point(7515) = {1.575,1.449,0.08548, lc};
Point(7516) = {1.565,1.439,0.08548, lc};
Point(7517) = {1.555,1.449,0.08548, lc};
Circle(7518) = {7514, 7513,7515};
Circle(7519) = {7515, 7513,7516};
Circle(7520) = {7516, 7513,7517};
Circle(7521) = {7517, 7513,7514};
Line Loop(7522) = {7518,7519,7520,7521};
Plane Surface(7523) = {7522};
Extrude {0,0,0.01} { 
  Surface{7523};
}
Point(7792) = {1.565,1.449,0.03548, lc};
Point(7793) = {1.565,1.454,0.03548, lc};
Point(7794) = {1.57,1.449,0.03548, lc};
Point(7795) = {1.565,1.444,0.03548, lc};
Point(7796) = {1.56,1.449,0.03548, lc};
Circle(7797) = {7793, 7792,7794};
Circle(7798) = {7794, 7792,7795};
Circle(7799) = {7795, 7792,7796};
Circle(7800) = {7796, 7792,7793};
Line Loop(7801) = {7797,7798,7799,7800};
Plane Surface(7802) = {7801};
Extrude {0,0,0.05} { 
  Surface{7802};
}
Point(8071) = {1.565,1.449,0.03411, lc};
Point(8072) = {1.565,1.459,0.03411, lc};
Point(8073) = {1.575,1.449,0.03411, lc};
Point(8074) = {1.565,1.439,0.03411, lc};
Point(8075) = {1.555,1.449,0.03411, lc};
Circle(8076) = {8072, 8071,8073};
Circle(8077) = {8073, 8071,8074};
Circle(8078) = {8074, 8071,8075};
Circle(8079) = {8075, 8071,8072};
Line Loop(8080) = {8076,8077,8078,8079};
Plane Surface(8081) = {8080};
Extrude {0,0,0.00137} { 
  Surface{8081};
}
Point(8350) = {1.565,1.449,0.02411, lc};
Point(8351) = {1.565,1.454,0.02411, lc};
Point(8352) = {1.57,1.449,0.02411, lc};
Point(8353) = {1.565,1.444,0.02411, lc};
Point(8354) = {1.56,1.449,0.02411, lc};
Circle(8355) = {8351, 8350,8352};
Circle(8356) = {8352, 8350,8353};
Circle(8357) = {8353, 8350,8354};
Circle(8358) = {8354, 8350,8351};
Line Loop(8359) = {8355,8356,8357,8358};
Plane Surface(8360) = {8359};
Extrude {0,0,0.01} { 
  Surface{8360};
}
Point(8629) = {1.565,1.449,0.02274, lc};
Point(8630) = {1.565,1.459,0.02274, lc};
Point(8631) = {1.575,1.449,0.02274, lc};
Point(8632) = {1.565,1.439,0.02274, lc};
Point(8633) = {1.555,1.449,0.02274, lc};
Circle(8634) = {8630, 8629,8631};
Circle(8635) = {8631, 8629,8632};
Circle(8636) = {8632, 8629,8633};
Circle(8637) = {8633, 8629,8630};
Line Loop(8638) = {8634,8635,8636,8637};
Plane Surface(8639) = {8638};
Extrude {0,0,0.00137} { 
  Surface{8639};
}
Point(8908) = {1.565,1.449,0.01274, lc};
Point(8909) = {1.565,1.454,0.01274, lc};
Point(8910) = {1.57,1.449,0.01274, lc};
Point(8911) = {1.565,1.444,0.01274, lc};
Point(8912) = {1.56,1.449,0.01274, lc};
Circle(8913) = {8909, 8908,8910};
Circle(8914) = {8910, 8908,8911};
Circle(8915) = {8911, 8908,8912};
Circle(8916) = {8912, 8908,8909};
Line Loop(8917) = {8913,8914,8915,8916};
Plane Surface(8918) = {8917};
Extrude {0,0,0.01} { 
  Surface{8918};
}
Point(9187) = {1.565,1.449,0.01137, lc};
Point(9188) = {1.565,1.459,0.01137, lc};
Point(9189) = {1.575,1.449,0.01137, lc};
Point(9190) = {1.565,1.439,0.01137, lc};
Point(9191) = {1.555,1.449,0.01137, lc};
Circle(9192) = {9188, 9187,9189};
Circle(9193) = {9189, 9187,9190};
Circle(9194) = {9190, 9187,9191};
Circle(9195) = {9191, 9187,9188};
Line Loop(9196) = {9192,9193,9194,9195};
Plane Surface(9197) = {9196};
Extrude {0,0,0.00137} { 
  Surface{9197};
}
Point(9466) = {1.565,1.449,0.00137, lc};
Point(9467) = {1.565,1.454,0.00137, lc};
Point(9468) = {1.57,1.449,0.00137, lc};
Point(9469) = {1.565,1.444,0.00137, lc};
Point(9470) = {1.56,1.449,0.00137, lc};
Circle(9471) = {9467, 9466,9468};
Circle(9472) = {9468, 9466,9469};
Circle(9473) = {9469, 9466,9470};
Circle(9474) = {9470, 9466,9467};
Line Loop(9475) = {9471,9472,9473,9474};
Plane Surface(9476) = {9475};
Extrude {0,0,0.01} { 
  Surface{9476};
}
Point(9745) = {1.565,1.449,0, lc};
Point(9746) = {1.565,1.459,0, lc};
Point(9747) = {1.575,1.449,0, lc};
Point(9748) = {1.565,1.439,0, lc};
Point(9749) = {1.555,1.449,0, lc};
Circle(9750) = {9746, 9745,9747};
Circle(9751) = {9747, 9745,9748};
Circle(9752) = {9748, 9745,9749};
Circle(9753) = {9749, 9745,9746};
Line Loop(9754) = {9750,9751,9752,9753};
Plane Surface(9755) = {9754};
Extrude {0,0,0.00137} { 
  Surface{9755};
}
Point(10024) = {1.581,1.465,0.10548, lc};
Point(10025) = {1.581,1.471,0.10548, lc};
Point(10026) = {1.587,1.465,0.10548, lc};
Point(10027) = {1.581,1.459,0.10548, lc};
Point(10028) = {1.575,1.465,0.10548, lc};
Circle(10029) = {10025, 10024,10026};
Circle(10030) = {10026, 10024,10027};
Circle(10031) = {10027, 10024,10028};
Circle(10032) = {10028, 10024,10025};
Line Loop(10033) = {10029,10030,10031,10032};
Plane Surface(10034) = {10033};
Extrude {0,0,0.00137} { 
  Surface{10034};
}
Point(10303) = {1.549,1.465,0.10548, lc};
Point(10304) = {1.549,1.471,0.10548, lc};
Point(10305) = {1.555,1.465,0.10548, lc};
Point(10306) = {1.549,1.459,0.10548, lc};
Point(10307) = {1.543,1.465,0.10548, lc};
Circle(10308) = {10304, 10303,10305};
Circle(10309) = {10305, 10303,10306};
Circle(10310) = {10306, 10303,10307};
Circle(10311) = {10307, 10303,10304};
Line Loop(10312) = {10308,10309,10310,10311};
Plane Surface(10313) = {10312};
Extrude {0,0,0.00137} { 
  Surface{10313};
}
Point(10582) = {1.546, 1.4305, 0, lc} ;
Point(10583) = {1.526, 1.4305, 0, lc} ;
Point(10584) = {1.526, 1.4105, 0, lc} ;
Point(10585) = {1.546, 1.4105, 0, lc} ;
Line(10586) = {10582,10583} ;
Line(10587) = {10583,10584} ;
Line(10588) = {10584,10585} ;
Line(10589) = {10585,10582} ;
Line Loop(10590) = {10586,10587,10588,10589} ;
Plane Surface(10591) = {10590} ;
Extrude{0,0,0.00137}{ Surface{10591}; }
Point(10856) = {1.483, 1.362, 0, lc} ;
Point(10857) = {1.503, 1.362, 0, lc} ;
Point(10858) = {1.503, 1.382, 0, lc} ;
Point(10859) = {1.483, 1.382, 0, lc} ;
Line(10860) = {10856,10857} ;
Line(10861) = {10857,10858} ;
Line(10862) = {10858,10859} ;
Line(10863) = {10859,10856} ;
Line Loop(10864) = {10860,10861,10862,10863} ;
Plane Surface(10865) = {10864} ;
Extrude{0,0,0.00137}{ Surface{10865}; }
Point(11130) = {1.523, 1.46086, 0, lc} ;
Point(11131) = {1.53714, 1.475, 0, lc} ;
Point(11132) = {1.523, 1.48914, 0, lc} ;
Point(11133) = {1.50886, 1.475, 0, lc} ;
Line(11134) = {11130,11131} ;
Line(11135) = {11131,11132} ;
Line(11136) = {11132,11133} ;
Line(11137) = {11133,11130} ;
Line Loop(11138) = {11134,11135,11136,11137} ;
Plane Surface(11139) = {11138} ;
Extrude{0,0,0.00137}{ Surface{11139}; }
Point(11404) = {1.523, 1.46086, 0, lc} ;
Point(11405) = {1.53714, 1.475, 0, lc} ;
Point(11406) = {1.523, 1.48914, 0, lc} ;
Point(11407) = {1.50886, 1.475, 0, lc} ;
Line(11408) = {11404,11405} ;
Line(11409) = {11405,11406} ;
Line(11410) = {11406,11407} ;
Line(11411) = {11407,11404} ;
Line Loop(11412) = {11408,11409,11410,11411} ;
Plane Surface(11413) = {11412} ;
Extrude{0,0,0.00137}{ Surface{11413}; }
Delete {
  Volume{2, 3, 4, 5};
}
Delete {
  Volume{7};
}
Delete {
  Volume{19, 18};
}
Delete {
  Volume{22, 21};
}
Delete {
  Volume{6};
}
Delete {
  Volume{8, 9, 10, 11, 12, 13, 14, 15, 16, 17, 23, 20};
}
Delete {
  Volume{1};
}
Surface Loop(11413) = {7253, 7244, 7257, 7261, 7265, 7266};
Physical Surface(11414)= {10056, 5788};
Physical Surface(11415) = {11139, 11161};
Physical Surface(11416) = {10887, 10865};
Surface Loop(11417) = {10865, 10878, 10882, 10887, 220, 500};
Volume(11418) = {11417};
Physical Volume(11419) = {11418};
Physical Surface(11420) = {500, 220};
Physical Surface(11421) = {404, 400};
Physical Surface(11422) = {10313, 10335};
Physical Surface(11423) = {10056, 10034};
